<svg width="22" height="22" viewBox="0 0 22 22" fill="none" xmlns="http://www.w3.org/2000/svg">
<g clip-path="url(#clip0_6_46)">
<path d="M21.3919 18.0895C21.3122 17.9978 21.2334 17.9535 21.1348 17.9466C21.0105 17.9379 20.8601 18.0566 19.6821 19.0726C18.2475 20.3076 18.1209 20.3935 17.5219 20.4593C16.7401 20.5511 15.8929 20.0396 15.6086 19.3004C15.3938 18.7383 15.4275 18.1936 15.7157 17.6452C15.84 17.4084 16.0154 17.2398 17.5845 15.8677C18.7225 14.8705 19.381 14.2618 19.5093 14.0899C20.0275 13.3938 20.1693 12.4131 19.8607 11.5903C19.4076 10.3698 18.0843 9.64409 16.8246 9.91782C16.3041 10.0322 16.0074 10.2096 15.2656 10.8383C14.8767 11.1643 14.5761 11.3974 14.5965 11.3514C14.8568 10.7709 15.0731 9.83411 15.1324 8.9854C15.3127 6.46958 14.2342 4.08973 12.2234 2.5406C10.3513 1.10026 7.91557 0.637032 5.60547 1.27236C3.49703 1.85717 1.65709 3.46869 0.778446 5.50063C0.41875 6.33264 0.259945 7.0021 0.196192 7.97541C0.14194 8.75125 0.161815 9.14461 0.278839 9.81182C0.762582 12.5033 2.72771 14.7686 5.32228 15.609C6.89722 16.124 8.57851 16.1038 10.15 15.5589C11.3155 15.1537 11.6369 14.9307 14.1704 12.7646C15.4533 11.6655 16.4177 10.8714 16.5468 10.8116C16.886 10.6414 17.1863 10.5978 17.6009 10.6441C18.1989 10.716 18.6576 10.9936 18.9804 11.49C19.3777 12.0907 19.3643 12.9598 18.9553 13.573C18.8878 13.676 18.0685 14.4285 17.0819 15.2942L15.3291 16.8299L15.1034 17.2234C14.843 17.6833 14.7653 17.932 14.7314 18.4163C14.6795 19.1579 14.869 19.7139 15.3587 20.2865C15.6255 20.5981 15.7393 20.6965 16.0294 20.8589C16.4525 21.091 16.7141 21.1695 17.177 21.2019C17.7514 21.2421 18.3301 21.0973 18.7852 20.8104C19.0378 20.6472 21.349 18.6422 21.4265 18.5184C21.5285 18.3532 21.5192 18.2406 21.3919 18.0895ZM14.188 10.2331C14.0212 10.8331 13.7392 11.4767 13.4033 12.0304C13.2424 12.2991 13.0936 12.517 13.0765 12.5158C13.0593 12.5146 13.0392 12.3711 13.038 12.203C13.0242 11.7239 12.9035 10.8626 12.783 10.3675L12.6719 9.92464L12.8219 9.50439C13.1368 8.63479 13.2706 8.01527 13.3618 7.01803C13.442 6.1794 13.4482 5.78355 13.3993 5.06511L13.3856 4.89186L13.5206 5.11667C13.9942 5.9208 14.3166 6.97712 14.4033 8.01694C14.4473 8.55844 14.3381 9.68795 14.188 10.2331ZM11.8419 13.7863C11.6006 13.9719 11.3648 14.1406 11.3202 14.1633C11.2226 14.2039 11.2192 14.1907 11.1908 13.6116C11.0597 11.1127 9.82877 8.51115 7.944 6.75979C6.5528 5.46506 4.79082 4.54499 3.041 4.19003C2.83277 4.14962 2.63341 4.10553 2.60001 4.09027C2.53293 4.06405 2.75297 3.81238 3.19843 3.4171C3.49254 3.15338 3.506 3.1457 3.71604 3.16039C4.07181 3.18527 4.98928 3.37003 5.47014 3.51565C8.84501 4.53127 11.4003 7.35037 12.0958 10.832C12.2544 11.6442 12.3297 12.4765 12.2949 13.159L12.2791 13.4464L11.8419 13.7863ZM12.4653 7.95035C12.4122 8.21799 12.344 8.51474 12.3203 8.60785L12.2783 8.7772L12.1748 8.53306C12.0043 8.13778 11.6604 7.51071 11.3996 7.11342L11.1584 6.74335L11.2277 6.36915C11.4003 5.50251 11.3856 4.0499 11.1949 3.08033C11.1601 2.90129 11.1329 2.73571 11.1341 2.71857C11.1374 2.67142 11.4337 2.86874 11.8542 3.19966C12.4261 3.64455 12.4301 3.64913 12.5154 4.15475C12.5818 4.55998 12.6545 5.24562 12.6658 5.63838C12.6811 6.09604 12.5608 7.50906 12.4653 7.95035ZM10.2198 14.7454C9.96712 14.8484 9.42979 15.0175 9.36978 15.0133C9.35264 15.0121 9.32893 14.92 9.31957 14.8074C9.29203 14.4006 9.13259 13.4159 9.02758 13.008C8.40644 10.5568 6.98475 8.52765 4.9785 7.22006C4.05551 6.62141 2.89605 6.13974 1.82238 5.9096C1.62272 5.8698 1.45765 5.8281 1.44937 5.82322C1.43741 5.80946 1.57263 5.53893 1.80406 5.12438L2.00618 4.75946L2.32587 4.80766C5.97654 5.3903 8.98551 8.00422 10.0571 11.5294C10.3413 12.4538 10.5149 13.6677 10.4806 14.4664C10.4729 14.6382 10.4683 14.6422 10.2198 14.7454ZM10.5375 5.89015C10.5152 5.90151 10.3776 5.77559 10.2212 5.60959C10.0688 5.44817 9.77387 5.16911 9.57124 4.98695L9.20186 4.66391L9.21682 4.01885C9.23327 3.35236 9.20128 2.63941 9.12958 2.18643C9.10548 2.03829 9.09274 1.91249 9.1062 1.90482C9.12913 1.88488 9.72512 2.04716 10.0189 2.15816L10.2498 2.24323L10.3352 2.62394C10.5038 3.35505 10.6084 4.1377 10.6179 4.74139C10.6233 5.09498 10.5687 5.8751 10.5375 5.89015ZM8.50918 15.1858C8.46541 15.1956 8.35705 15.2053 8.27043 15.2121C8.17921 15.223 8.03198 15.2342 7.94535 15.2411C7.78954 15.2517 7.8033 15.2398 8.15781 15.0363C8.55728 14.8058 8.60902 14.8051 8.59164 15.0537C8.58654 15.1266 8.55723 15.1762 8.50918 15.1858ZM8.17181 14.1585C7.65918 14.4673 7.23917 14.6834 6.72945 14.889L6.2283 15.0952L5.90274 15.0078C5.56432 14.9195 4.98479 14.7067 4.74736 14.591L4.61439 14.5214L5.09471 14.3052C6.0685 13.8693 6.78879 13.4243 7.55288 12.7843C7.82745 12.5537 8.05526 12.3758 8.05894 12.3846C8.12891 12.4929 8.45318 13.769 8.45126 13.9196C8.45285 13.9585 8.32474 14.0659 8.17181 14.1585ZM7.99012 3.82108C6.97254 3.22012 5.84437 2.78372 4.73551 2.56404C4.519 2.51875 4.51501 2.51416 4.60494 2.46014C4.80742 2.33647 5.49309 2.07859 5.91906 1.96193C6.49836 1.8086 7.16317 1.72587 7.79996 1.73594L8.30326 1.74529L8.35395 2.06758C8.39877 2.35069 8.45908 2.96656 8.47587 3.34247C8.47934 3.41594 8.47841 3.61401 8.47071 3.78577L8.45342 4.09469L7.99012 3.82108ZM7.17079 12.1502C6.27889 12.8933 5.18873 13.5149 4.15574 13.8734L3.75857 14.0093L3.45667 13.7685C3.28962 13.6319 3.07413 13.4489 2.98153 13.3563L2.80801 13.1891L3.15952 13.0284C4.42791 12.4452 5.76793 11.4534 6.60714 10.4783C6.76207 10.2953 6.89717 10.1497 6.91033 10.1463C6.94891 10.149 7.36199 10.8326 7.5625 11.23L7.75224 11.5965L7.57128 11.782C7.47377 11.8828 7.29401 12.0512 7.17079 12.1502ZM6.15586 9.84804C5.84598 10.214 5.38287 10.677 5.35955 10.6409C4.47256 9.34267 2.91704 8.30351 1.37666 7.97181C0.918226 7.87515 0.950719 7.90326 0.9729 7.58607C0.98399 7.42747 1.03498 7.12952 1.08824 6.92218L1.18749 6.55008L1.44716 6.59408C2.91029 6.86007 4.56623 7.6952 5.67476 8.72033C5.91756 8.94406 6.42378 9.46619 6.43424 9.50139C6.43364 9.50996 6.3108 9.66505 6.15586 9.84804ZM4.45698 11.4134C3.98512 11.7552 3.22256 12.1886 2.70306 12.4107L2.28974 12.5929L2.17563 12.4384C1.45317 11.436 1.0003 10.1509 0.907708 8.82634L0.894878 8.64023L1.13711 8.68731C1.65555 8.78818 2.49395 9.11817 3.00658 9.42538C3.49439 9.71793 3.92906 10.0929 4.37158 10.602C4.61447 10.886 4.81719 11.1285 4.81659 11.1371C4.81599 11.1456 4.65209 11.272 4.45698 11.4134Z" fill="#997AAE"/>
</g>
<defs>
<clipPath id="clip0_6_46">
<rect width="22" height="22" fill="white"/>
</clipPath>
</defs>
</svg>
