<?xml version="1.0" encoding="UTF-8" standalone="no"?>
<svg
   width="22"
   height="22"
   viewBox="0 0 22 22"
   fill="none"
   version="1.1"
   id="svg1"
   sodipodi:docname="cat-toy 1.svg"
   xml:space="preserve"
   inkscape:version="1.4.2 (f4327f4, 2025-05-13)"
   xmlns:inkscape="http://www.inkscape.org/namespaces/inkscape"
   xmlns:sodipodi="http://sodipodi.sourceforge.net/DTD/sodipodi-0.dtd"
   xmlns="http://www.w3.org/2000/svg"
   xmlns:svg="http://www.w3.org/2000/svg"><sodipodi:namedview
     id="namedview1"
     pagecolor="#ffffff"
     bordercolor="#000000"
     borderopacity="0.25"
     inkscape:showpageshadow="2"
     inkscape:pageopacity="0.0"
     inkscape:pagecheckerboard="0"
     inkscape:deskcolor="#d1d1d1"
     inkscape:zoom="6.7954546"
     inkscape:cx="11.551839"
     inkscape:cy="3.3846154"
     inkscape:window-width="1368"
     inkscape:window-height="842"
     inkscape:window-x="-6"
     inkscape:window-y="-6"
     inkscape:window-maximized="1"
     inkscape:current-layer="layer1" /><g
     inkscape:groupmode="layer"
     id="layer1"
     inkscape:label="Layer 1"><g
       id="g2"
       transform="matrix(0.37129648,0,0,0.35391836,-0.31622606,0.25542957)"><path
         id="path1092"
         style="fill:none;stroke:#ffffff;stroke-width:5;stroke-linecap:round;stroke-linejoin:round"
         d="M 23.78,23.78 V 9.781 c 0,-1.9588 0.536,-3.55 1.607,-4.7741 1.071,-1.2546 2.601,-1.8819 4.59,-1.8819 1.989,0 3.519,0.6273 4.59,1.8819 1.102,1.2241 1.653,2.8153 1.653,4.7737 v 13.999 h 13.816 c 2.019,0 3.611,0.551 4.773,1.653 1.194,1.071 1.791,2.586 1.791,4.544 0,1.989 -0.597,3.534 -1.791,4.636 -1.162,1.102 -2.754,1.652 -4.773,1.652 H 36.22 v 13.954 c 0,1.989 -0.551,3.596 -1.653,4.82 -1.101,1.224 -2.632,1.836 -4.59,1.836 -1.958,0 -3.488,-0.612 -4.59,-1.836 -1.071,-1.224 -1.607,-2.831 -1.607,-4.82 V 36.2646 H 9.964 c -1.9582,0 -3.5494,-0.596 -4.7735,-1.79 -1.1934,-1.224 -1.7901,-2.723 -1.7901,-4.498 0,-1.958 0.5814,-3.473 1.7442,-4.544 1.1935,-1.102 2.8,-1.653 4.8196,-1.653 h 13.816 z" /><path
         id="path837"
         style="fill:#000000"
         d="M 23.78,23.78 V 9.781 c 0,-1.9588 0.536,-3.55 1.607,-4.7741 1.071,-1.2546 2.601,-1.8819 4.59,-1.8819 1.989,0 3.519,0.6273 4.59,1.8819 1.102,1.2241 1.653,2.8153 1.653,4.7737 v 13.999 h 13.816 c 2.019,0 3.611,0.551 4.773,1.653 1.194,1.071 1.791,2.586 1.791,4.544 0,1.989 -0.597,3.534 -1.791,4.636 -1.162,1.102 -2.754,1.652 -4.773,1.652 H 36.22 v 13.954 c 0,1.989 -0.551,3.596 -1.653,4.82 -1.101,1.224 -2.632,1.836 -4.59,1.836 -1.958,0 -3.488,-0.612 -4.59,-1.836 -1.071,-1.224 -1.607,-2.831 -1.607,-4.82 V 36.2646 H 9.964 c -1.9582,0 -3.5494,-0.596 -4.7735,-1.79 -1.1934,-1.224 -1.7901,-2.723 -1.7901,-4.498 0,-1.958 0.5814,-3.473 1.7442,-4.544 1.1935,-1.102 2.8,-1.653 4.8196,-1.653 h 13.816 z" /><path
         style="fill:#f40174;stroke-width:0.0543537"
         d="m 28.889013,56.770718 c -1.583729,-0.221117 -2.872249,-0.935331 -3.720299,-2.062127 -0.827604,-1.099626 -1.233392,-2.304667 -1.33574,-3.966651 -0.02771,-0.449916 -0.05101,-3.892862 -0.05179,-7.650991 l -0.0014,-6.832962 -7.378521,-0.0177 C 8.2489633,36.22074 8.70319,36.239744 7.574867,35.871025 5.5925837,35.223245 4.130463,33.637926 3.610001,31.572082 3.4467133,30.923951 3.4047585,29.475289 3.5269353,28.703896 3.8983407,26.358936 5.3564429,24.74587 7.6910544,24.097225 8.7263983,23.809567 8.806847,23.806939 16.577385,23.806939 h 7.195797 l 0.02188,-7.487228 c 0.02149,-7.3528444 0.02394,-7.4979591 0.136903,-8.0851192 0.194594,-1.0114977 0.554111,-1.9145272 1.05767,-2.6566486 0.296951,-0.4376306 0.922264,-1.0854638 1.32541,-1.3731428 0.398963,-0.2846942 1.222798,-0.6771889 1.679353,-0.8000839 1.479752,-0.3983186 3.2882,-0.3109174 4.590671,0.2218644 0.839572,0.3434312 1.690543,1.0147088 2.283681,1.8014541 0.363224,0.4817841 0.76577,1.2769196 0.967738,1.9115408 0.341633,1.0734723 0.335928,0.9194684 0.335928,9.0686412 v 7.398722 h 7.226263 c 6.108997,0 7.322375,0.0126 7.847888,0.08149 2.489902,0.326398 4.335257,1.757241 5.004752,3.880563 0.247665,0.785474 0.321652,1.43124 0.28707,2.505559 -0.06328,1.96596 -0.573115,3.18587 -1.819124,4.352748 -0.975618,0.913659 -2.240921,1.42608 -3.879504,1.571116 -0.37365,0.03307 -3.386396,0.05479 -7.640507,0.05507 l -7.023604,4.64e-4 -0.01706,7.65029 -0.01706,7.650289 -0.142312,0.570714 c -0.489364,1.962499 -1.490542,3.29999 -3.062202,4.09085 -1.073835,0.540354 -2.626533,0.753094 -4.048006,0.55463 z"
         id="path1-4" /></g></g><defs
     id="defs1"><clipPath
       id="clip0_6_46"><rect
         width="22"
         height="22"
         fill="white"
         id="rect1" /></clipPath></defs></svg>
