<svg width="22" height="22" viewBox="0 0 22 22" fill="none" xmlns="http://www.w3.org/2000/svg">
    <g clip-path="url(#clip0_6_76)">
        <path
            d="M21.3933 17.893C21.3303 17.8206 21.2682 17.7856 21.1903 17.7802C21.0922 17.7733 20.9734 17.867 20.0435 18.6691C18.9111 19.6439 18.8111 19.7118 18.3382 19.7637C17.7211 19.8362 17.0523 19.4324 16.8279 18.8488C16.6583 18.4051 16.685 17.9752 16.9125 17.5423C17.0106 17.3553 17.1491 17.2222 18.3877 16.1391C19.286 15.3519 19.8058 14.8714 19.9071 14.7357C20.3162 14.1862 20.4281 13.412 20.1845 12.7625C19.8269 11.7991 18.7822 11.2262 17.7879 11.4423C17.3769 11.5325 17.1427 11.6726 16.5572 12.1689C16.2502 12.4262 16.0129 12.6102 16.029 12.574C16.2345 12.1157 16.4052 11.3762 16.452 10.7062C16.5943 8.72023 15.743 6.84159 14.1556 5.61871C12.6778 4.48171 10.7551 4.11604 8.93148 4.61756C7.26709 5.07921 5.81465 6.35134 5.12105 7.95535C4.8371 8.61214 4.71174 9.14061 4.66142 9.90894C4.61859 10.5214 4.63428 10.8319 4.72666 11.3586C5.10852 13.4832 6.65979 15.2714 8.70794 15.9349C9.95119 16.3414 11.2784 16.3254 12.519 15.8953C13.439 15.5755 13.6927 15.3994 15.6926 13.6895C16.7053 12.8219 17.4666 12.1951 17.5685 12.1478C17.8363 12.0135 18.0734 11.9791 18.4006 12.0156C18.8727 12.0724 19.2348 12.2915 19.4896 12.6833C19.8033 13.1575 19.7927 13.8436 19.4698 14.3277C19.4165 14.4089 18.7698 15.003 17.9909 15.6863L16.6073 16.8987L16.4291 17.2092C16.2235 17.5723 16.1622 17.7686 16.1355 18.151C16.0945 18.7363 16.2441 19.1752 16.6307 19.6273C16.8413 19.8732 16.9311 19.9509 17.1601 20.0791C17.4941 20.2623 17.7006 20.3243 18.066 20.3499C18.5195 20.3816 18.9763 20.2673 19.3355 20.0408C19.535 19.912 21.3593 18.3292 21.4206 18.2315C21.5011 18.1011 21.4937 18.0122 21.3933 17.893ZM15.7065 11.6912C15.5748 12.1648 15.3523 12.6728 15.0871 13.1099C14.96 13.3221 14.8426 13.4941 14.8291 13.4931C14.8155 13.4922 14.7997 13.3789 14.7987 13.2462C14.7878 12.868 14.6925 12.1881 14.5974 11.7972L14.5097 11.4476L14.6281 11.1159C14.8767 10.4294 14.9823 9.9404 15.0543 9.15318C15.1176 8.49117 15.1225 8.17868 15.0839 7.61155L15.0731 7.47479L15.1797 7.65225C15.5535 8.28703 15.8081 9.12088 15.8765 9.94172C15.9112 10.3692 15.825 11.2608 15.7065 11.6912ZM13.8545 14.496C13.664 14.6425 13.4779 14.7757 13.4426 14.7937C13.3656 14.8257 13.3629 14.8153 13.3405 14.3581C13.237 12.3855 12.2653 10.3318 10.7775 8.94933C9.67931 7.92727 8.2884 7.20097 6.9071 6.92076C6.74272 6.88887 6.58535 6.85406 6.55899 6.84202C6.50603 6.82131 6.67973 6.62265 7.03138 6.31061C7.26355 6.10243 7.27417 6.09638 7.43997 6.10797C7.72082 6.12761 8.44507 6.27346 8.82465 6.38841C11.4888 7.19014 13.5059 9.41553 14.055 12.1639C14.1801 12.8051 14.2396 13.4621 14.2121 14.0008L14.1997 14.2278L13.8545 14.496ZM14.3466 9.88915C14.3047 10.1004 14.2509 10.3347 14.2321 10.4082L14.199 10.5419L14.1173 10.3491C13.9827 10.0371 13.7113 9.5421 13.5054 9.22848L13.315 8.93635L13.3696 8.64095C13.5059 7.95683 13.4943 6.81015 13.3438 6.04477C13.3163 5.90344 13.2948 5.77273 13.2957 5.7592C13.2983 5.72198 13.5323 5.87774 13.8642 6.13897C14.3157 6.49016 14.3188 6.49378 14.3861 6.89291C14.4386 7.2128 14.4959 7.75405 14.5049 8.06409C14.517 8.42536 14.422 9.54079 14.3466 9.88915ZM12.5741 15.2532C12.3746 15.3344 11.9504 15.468 11.903 15.4647C11.8895 15.4637 11.8708 15.391 11.8634 15.3021C11.8416 14.9809 11.7158 14.2037 11.6329 13.8817C11.1426 11.9466 10.0203 10.3449 8.43656 9.31266C7.70795 8.84009 6.79268 8.45986 5.94513 8.27819C5.78751 8.24677 5.65721 8.21385 5.65068 8.21C5.64123 8.19914 5.74797 7.98559 5.93067 7.65834L6.09022 7.37028L6.34258 7.40832C9.22441 7.86826 11.5997 9.93168 12.4456 12.7144C12.67 13.4441 12.807 14.4024 12.7799 15.0329C12.7738 15.1685 12.7702 15.1717 12.5741 15.2532ZM12.8249 8.26283C12.8072 8.2718 12.6986 8.1724 12.5751 8.04136C12.4548 7.91394 12.222 7.69364 12.0621 7.54985L11.7705 7.29485L11.7823 6.78564C11.7953 6.25951 11.77 5.69671 11.7134 5.33913C11.6944 5.22219 11.6843 5.12288 11.695 5.11682C11.7131 5.10109 12.1835 5.22919 12.4154 5.31681L12.5977 5.38396L12.6651 5.6845C12.7982 6.26164 12.8808 6.87945 12.8883 7.35601C12.8925 7.63513 12.8495 8.25096 12.8249 8.26283ZM11.2237 15.6008C11.1891 15.6085 11.1036 15.6162 11.0352 15.6216C10.9632 15.6301 10.847 15.639 10.7786 15.6444C10.6556 15.6528 10.6664 15.6434 10.9463 15.4828C11.2616 15.3008 11.3025 15.3002 11.2888 15.4965C11.2847 15.554 11.2616 15.5932 11.2237 15.6008ZM10.9573 14.7899C10.5527 15.0336 10.2211 15.2042 9.81875 15.3665L9.42315 15.5293L9.16615 15.4603C8.89901 15.3906 8.44152 15.2226 8.2541 15.1313L8.14913 15.0763L8.52829 14.9056C9.297 14.5616 9.8656 14.2103 10.4688 13.705C10.6855 13.523 10.8653 13.3826 10.8683 13.3896C10.9235 13.475 11.1795 14.4824 11.1779 14.6013C11.1792 14.632 11.0781 14.7167 10.9573 14.7899ZM10.8139 6.62952C10.0106 6.15512 9.12007 5.81063 8.24474 5.63721C8.07383 5.60146 8.07068 5.59784 8.14167 5.5552C8.30151 5.45757 8.84278 5.254 9.17904 5.16191C9.63633 5.04087 10.1611 4.97557 10.6638 4.98351L11.0611 4.9909L11.1011 5.24531C11.1365 5.4688 11.1841 5.95496 11.1974 6.2517C11.2001 6.3097 11.1994 6.46606 11.1933 6.60164L11.1796 6.8455L10.8139 6.62952ZM10.1671 13.2045C9.46308 13.7911 8.60252 14.2818 7.78707 14.5648L7.47355 14.6721L7.23523 14.482C7.10336 14.3742 6.93325 14.2297 6.86016 14.1566L6.72318 14.0246L7.00066 13.8978C8.00192 13.4373 9.05973 12.6545 9.7222 11.8847C9.84451 11.7403 9.95115 11.6253 9.96154 11.6226C9.99199 11.6248 10.3181 12.1644 10.4764 12.4781L10.6261 12.7674L10.4833 12.9138C10.4063 12.9934 10.2644 13.1263 10.1671 13.2045ZM9.36596 11.3872C9.12135 11.6761 8.75577 12.0416 8.73736 12.0131C8.03717 10.9882 6.80925 10.1679 5.59328 9.90609C5.23139 9.82979 5.25704 9.85198 5.27455 9.60159C5.2833 9.47639 5.32355 9.24119 5.3656 9.07752L5.44394 8.78378L5.64893 8.81851C6.80392 9.02849 8.11111 9.68773 8.98618 10.497C9.17785 10.6736 9.57745 11.0858 9.58571 11.1135C9.58524 11.1203 9.48827 11.2427 9.36596 11.3872ZM8.02487 12.6229C7.65238 12.8927 7.05042 13.2348 6.64034 13.4101L6.31406 13.5539L6.22398 13.432C5.65367 12.6407 5.29618 11.6262 5.22309 10.5807L5.21296 10.4337L5.40417 10.4709C5.81343 10.5505 6.47526 10.811 6.87993 11.0535C7.26501 11.2845 7.60813 11.5805 7.95746 11.9823C8.14919 12.2066 8.30922 12.398 8.30875 12.4047C8.30827 12.4115 8.17889 12.5113 8.02487 12.6229Z M5.86299 13.2216C5.65615 12.9814 5.47093 12.7498 5.31319 12.5292L5.18037 12.4931C4.91246 12.4232 4.45424 12.2545 4.26631 12.163L4.16084 12.1083L4.54073 11.9364C4.6534 11.886 4.76206 11.8353 4.8669 11.7841C4.7975 11.6314 4.74969 11.4886 4.72627 11.3583C4.71698 11.3053 4.71059 11.2542 4.70284 11.205C4.40163 11.359 4.09655 11.4909 3.79756 11.5947L3.48311 11.7021L3.24483 11.5116C3.11258 11.4035 2.94117 11.2588 2.86787 11.1855L2.73116 11.0527L3.00948 10.9257C3.56916 10.6683 4.1454 10.3091 4.66182 9.9091C4.68326 9.58174 4.71898 9.29797 4.77412 9.02922C4.76159 9.03732 4.75307 9.0396 4.75069 9.03606C4.04851 8.00831 2.8168 7.18536 1.59737 6.92278C1.23492 6.84636 1.26048 6.86811 1.27803 6.61711C1.28687 6.49146 1.32771 6.25568 1.36983 6.09172L1.44795 5.79778L1.65401 5.83195C2.81221 6.04259 4.1232 6.70408 5.00069 7.51555C5.06116 7.57128 5.13939 7.65318 5.22237 7.73625C5.31364 7.54799 5.41667 7.36569 5.52803 7.1884C5.1973 6.87015 4.83759 6.58136 4.44893 6.32805C3.7183 5.85417 2.80079 5.47216 1.95088 5.28996C1.79282 5.25845 1.66153 5.22547 1.65498 5.2216C1.64809 5.20652 1.75501 4.99348 1.93623 4.66887L2.09639 4.37981L2.34932 4.41789C3.82514 4.65344 5.16762 5.30941 6.2419 6.26555C6.37828 6.12083 6.52093 5.98214 6.67061 5.85149C5.58978 4.88642 4.24912 4.19917 2.91573 3.92863C2.75094 3.89666 2.59263 3.8626 2.56612 3.85051C2.51302 3.82975 2.68725 3.63012 3.03975 3.31731C3.27258 3.10853 3.28363 3.10255 3.44991 3.11418C3.73166 3.13392 4.45798 3.28018 4.83858 3.39543C5.95305 3.73086 6.95403 4.31523 7.78291 5.08195C7.96962 4.98182 8.16124 4.89199 8.35713 4.8134C8.26351 4.72405 8.16499 4.6317 8.08467 4.55949L7.79268 4.30461L7.8044 3.79387C7.81742 3.26624 7.79182 2.7013 7.73506 2.3427C7.71617 2.22653 7.7063 2.12762 7.71651 2.12004C7.73465 2.10427 8.20651 2.23237 8.43916 2.32024L8.62178 2.38762L8.69014 2.68938C8.82351 3.26796 8.90623 3.88735 8.91377 4.36516C8.91485 4.43535 8.91177 4.52714 8.90791 4.62492C8.91583 4.62269 8.92342 4.61931 8.93135 4.61711C9.11652 4.56619 9.3033 4.52721 9.48994 4.49406C9.49102 3.99028 9.45221 3.46482 9.3708 3.0507C9.34345 2.91023 9.32143 2.78009 9.32198 2.76457C9.32459 2.72725 9.55939 2.88346 9.89229 3.14543C10.3449 3.49749 10.3482 3.50107 10.4157 3.90129C10.4383 4.03898 10.46 4.21773 10.4802 4.40129C10.93 4.39596 11.3759 4.44098 11.8112 4.53508C11.4199 3.80501 10.8713 3.15225 10.1843 2.62297C8.70246 1.48303 6.7745 1.11636 4.946 1.61906C3.27689 2.08202 1.8203 3.35818 1.12471 4.96672C0.839968 5.62536 0.714246 6.15522 0.663773 6.9257C0.620824 7.53989 0.636561 7.85161 0.729202 8.37981C1.11226 10.5103 2.66753 12.3034 4.72139 12.9687C5.09588 13.0911 5.47794 13.1754 5.86299 13.2216ZM6.83369 3.63664C6.02813 3.16089 5.13437 2.81544 4.25655 2.64153C4.08569 2.60578 4.08216 2.60208 4.15303 2.55949C4.31332 2.46159 4.85683 2.25732 5.19405 2.16496C5.65243 2.04367 6.17847 1.97833 6.68233 1.98625L7.08076 1.99406L7.12178 2.24895C7.15724 2.47305 7.20417 2.96019 7.21748 3.25774C7.22024 3.3159 7.21968 3.47333 7.21358 3.6093L7.19991 3.85344L6.83369 3.63664ZM2.23018 10.4589C1.65829 9.66537 1.2996 8.64803 1.22627 7.59953L1.21651 7.45207L1.40791 7.48918C1.81834 7.56903 2.48256 7.82997 2.88838 8.07317C3.27447 8.30471 3.61822 8.60195 3.96846 9.00481C4.16067 9.22959 4.32136 9.42172 4.321 9.42863C4.32052 9.43542 4.1903 9.53543 4.03584 9.64738C3.6624 9.9178 3.05928 10.2606 2.64815 10.4364L2.321 10.581L2.23018 10.4589Z"
            fill="#997AAE" />
    </g>
    <defs>
        <clipPath id="clip0_6_76">
            <rect width="22" height="22" fill="white" />
        </clipPath>
    </defs>
</svg>