<?xml version="1.0" encoding="UTF-8" standalone="no"?>
<svg
   width="20"
   height="20"
   viewBox="0 0 44 46"
   fill="none"
   version="1.1"
   id="svg1"
   sodipodi:docname="Paw.svg"
   xml:space="preserve"
   inkscape:version="1.4.2 (f4327f4, 2025-05-13)"
   xmlns:inkscape="http://www.inkscape.org/namespaces/inkscape"
   xmlns:sodipodi="http://sodipodi.sourceforge.net/DTD/sodipodi-0.dtd"
   xmlns="http://www.w3.org/2000/svg"
   xmlns:svg="http://www.w3.org/2000/svg"><defs
     id="defs1" /><sodipodi:namedview
     id="namedview1"
     pagecolor="#ffffff"
     bordercolor="#000000"
     borderopacity="0.25"
     inkscape:showpageshadow="2"
     inkscape:pageopacity="0.0"
     inkscape:pagecheckerboard="0"
     inkscape:deskcolor="#d1d1d1"
     inkscape:zoom="21.142493"
     inkscape:cx="10.334638"
     inkscape:cy="10.78397"
     inkscape:window-width="1368"
     inkscape:window-height="842"
     inkscape:window-x="-6"
     inkscape:window-y="-6"
     inkscape:window-maximized="1"
     inkscape:current-layer="svg1" /><g
     id="g1"
     transform="matrix(2.2945523,0,0,2.2946111,-5.6066178,-4.5317094)"><g
       id="Left-3"
       data-name="Left"
       transform="rotate(89.543057,12.000107,12)"><path
         d="M 21,8 H 11 V 5 A 1,1 0 0 0 9.293,4.293 l -7,7 a 1,1 0 0 0 0,1.414 l 7,7 A 1,1 0 0 0 11,19 v -3 h 10 a 1,1 0 0 0 1,-1 V 9 A 1,1 0 0 0 21,8 Z"
         style="fill:#ff891a"
         id="path1-1" /></g><path
       style="opacity:0;fill:#f40174;stroke-width:0.0310479"
       d="M 9.8062743,19.963955 C 9.7353007,19.949109 9.6165426,19.906727 9.5423674,19.869773 9.4474143,19.822468 8.3397634,18.735341 5.7994895,16.196247 1.7623276,12.160961 2.0267357,12.455049 2.0267357,12 c 0,-0.454813 -0.264023,-0.161033 3.7728019,-4.1980213 C 9.076546,4.5248374 9.4245914,4.186048 9.5937904,4.1086294 c 0.5132566,-0.2348454 1.1201816,0.01638 1.3218626,0.5471604 0.05618,0.1478544 0.05977,0.25322 0.05977,1.7554776 v 1.5981824 l 5.13066,0.00821 5.13066,0.00821 0.177054,0.086945 c 0.212183,0.1041963 0.431247,0.3366427 0.510753,0.5419542 0.05376,0.1388299 0.05755,0.3246532 0.06582,3.232601 0.0057,1.993731 -0.0024,3.145638 -0.02274,3.255837 -0.06334,0.342632 -0.276864,0.621085 -0.585719,0.763825 l -0.14517,0.06709 -5.13066,0.0082 -5.13066,0.0082 v 1.597351 c 0,1.537087 -0.0024,1.603803 -0.06399,1.768377 -0.158014,0.422331 -0.663222,0.700122 -1.1051567,0.607677 z"
       id="path2" /><path
       style="opacity:0;fill:#f40174;stroke-width:0.0310479"
       d="M 9.8062743,19.963955 C 9.7353007,19.949109 9.6165426,19.906727 9.5423674,19.869773 9.4474143,19.822468 8.3397634,18.735341 5.7994895,16.196247 1.7623276,12.160961 2.0267357,12.455049 2.0267357,12 c 0,-0.454813 -0.264023,-0.161033 3.7728019,-4.1980213 C 9.076546,4.5248374 9.4245914,4.186048 9.5937904,4.1086294 c 0.5132566,-0.2348454 1.1201816,0.01638 1.3218626,0.5471604 0.05618,0.1478544 0.05977,0.25322 0.05977,1.7554776 v 1.5981824 l 5.13066,0.00821 5.13066,0.00821 0.177054,0.086945 c 0.212183,0.1041963 0.431247,0.3366427 0.510753,0.5419542 0.05376,0.1388299 0.05755,0.3246532 0.06582,3.232601 0.0057,1.993731 -0.0024,3.145638 -0.02274,3.255837 -0.06334,0.342632 -0.276864,0.621085 -0.585719,0.763825 l -0.14517,0.06709 -5.13066,0.0082 -5.13066,0.0082 v 1.597351 c 0,1.537087 -0.0024,1.603803 -0.06399,1.768377 -0.158014,0.422331 -0.663222,0.700122 -1.1051567,0.607677 z"
       id="path3" /><path
       style="opacity:0;fill:#f40174;stroke-width:0.0310479"
       d="M 9.8062743,19.963955 C 9.7353007,19.949109 9.6165426,19.906727 9.5423674,19.869773 9.4474143,19.822468 8.3397634,18.735341 5.7994895,16.196247 1.7623276,12.160961 2.0267357,12.455049 2.0267357,12 c 0,-0.454813 -0.264023,-0.161033 3.7728019,-4.1980213 C 9.076546,4.5248374 9.4245914,4.186048 9.5937904,4.1086294 c 0.5132566,-0.2348454 1.1201816,0.01638 1.3218626,0.5471604 0.05618,0.1478544 0.05977,0.25322 0.05977,1.7554776 v 1.5981824 l 5.13066,0.00821 5.13066,0.00821 0.177054,0.086945 c 0.212183,0.1041963 0.431247,0.3366427 0.510753,0.5419542 0.05376,0.1388299 0.05755,0.3246532 0.06582,3.232601 0.0057,1.993731 -0.0024,3.145638 -0.02274,3.255837 -0.06334,0.342632 -0.276864,0.621085 -0.585719,0.763825 l -0.14517,0.06709 -5.13066,0.0082 -5.13066,0.0082 v 1.597351 c 0,1.537087 -0.0024,1.603803 -0.06399,1.768377 -0.158014,0.422331 -0.663222,0.700122 -1.1051567,0.607677 z"
       id="path4" /><path
       style="opacity:0;fill:#f40174;stroke-width:0.0310479"
       d="M 9.8062743,19.963955 C 9.7353007,19.949109 9.6165426,19.906727 9.5423674,19.869773 9.4474143,19.822468 8.3397634,18.735341 5.7994895,16.196247 1.7623276,12.160961 2.0267357,12.455049 2.0267357,12 c 0,-0.454813 -0.264023,-0.161033 3.7728019,-4.1980213 C 9.076546,4.5248374 9.4245914,4.186048 9.5937904,4.1086294 c 0.5132566,-0.2348454 1.1201816,0.01638 1.3218626,0.5471604 0.05618,0.1478544 0.05977,0.25322 0.05977,1.7554776 v 1.5981824 l 5.13066,0.00821 5.13066,0.00821 0.177054,0.086945 c 0.212183,0.1041963 0.431247,0.3366427 0.510753,0.5419542 0.05376,0.1388299 0.05755,0.3246532 0.06582,3.232601 0.0057,1.993731 -0.0024,3.145638 -0.02274,3.255837 -0.06334,0.342632 -0.276864,0.621085 -0.585719,0.763825 l -0.14517,0.06709 -5.13066,0.0082 -5.13066,0.0082 v 1.597351 c 0,1.537087 -0.0024,1.603803 -0.06399,1.768377 -0.158014,0.422331 -0.663222,0.700122 -1.1051567,0.607677 z"
       id="path5" /><path
       style="opacity:0;fill:#f40174;stroke-width:0.0310479"
       d="M 9.8062743,19.963955 C 9.7353007,19.949109 9.6165426,19.906727 9.5423674,19.869773 9.4474143,19.822468 8.3397634,18.735341 5.7994895,16.196247 1.7623276,12.160961 2.0267357,12.455049 2.0267357,12 c 0,-0.454813 -0.264023,-0.161033 3.7728019,-4.1980213 C 9.076546,4.5248374 9.4245914,4.186048 9.5937904,4.1086294 c 0.5132566,-0.2348454 1.1201816,0.01638 1.3218626,0.5471604 0.05618,0.1478544 0.05977,0.25322 0.05977,1.7554776 v 1.5981824 l 5.13066,0.00821 5.13066,0.00821 0.177054,0.086945 c 0.212183,0.1041963 0.431247,0.3366427 0.510753,0.5419542 0.05376,0.1388299 0.05755,0.3246532 0.06582,3.232601 0.0057,1.993731 -0.0024,3.145638 -0.02274,3.255837 -0.06334,0.342632 -0.276864,0.621085 -0.585719,0.763825 l -0.14517,0.06709 -5.13066,0.0082 -5.13066,0.0082 v 1.597351 c 0,1.537087 -0.0024,1.603803 -0.06399,1.768377 -0.158014,0.422331 -0.663222,0.700122 -1.1051567,0.607677 z"
       id="path6" /><path
       style="opacity:0;fill:#f40174;stroke-width:0.0310479"
       d="M 9.8062743,19.963955 C 9.7353007,19.949109 9.6165426,19.906727 9.5423674,19.869773 9.4474143,19.822468 8.3397634,18.735341 5.7994895,16.196247 1.7623276,12.160961 2.0267357,12.455049 2.0267357,12 c 0,-0.454813 -0.264023,-0.161033 3.7728019,-4.1980213 C 9.076546,4.5248374 9.4245914,4.186048 9.5937904,4.1086294 c 0.5132566,-0.2348454 1.1201816,0.01638 1.3218626,0.5471604 0.05618,0.1478544 0.05977,0.25322 0.05977,1.7554776 v 1.5981824 l 5.13066,0.00821 5.13066,0.00821 0.177054,0.086945 c 0.212183,0.1041963 0.431247,0.3366427 0.510753,0.5419542 0.05376,0.1388299 0.05755,0.3246532 0.06582,3.232601 0.0057,1.993731 -0.0024,3.145638 -0.02274,3.255837 -0.06334,0.342632 -0.276864,0.621085 -0.585719,0.763825 l -0.14517,0.06709 -5.13066,0.0082 -5.13066,0.0082 v 1.597351 c 0,1.537087 -0.0024,1.603803 -0.06399,1.768377 -0.158014,0.422331 -0.663222,0.700122 -1.1051567,0.607677 z"
       id="path7" /><path
       style="opacity:0;fill:#f40174;stroke-width:0.0310479"
       d="M 9.8062743,19.963955 C 9.7353007,19.949109 9.6165426,19.906727 9.5423674,19.869773 9.4474143,19.822468 8.3397634,18.735341 5.7994895,16.196247 1.7623276,12.160961 2.0267357,12.455049 2.0267357,12 c 0,-0.454813 -0.264023,-0.161033 3.7728019,-4.1980213 C 9.076546,4.5248374 9.4245914,4.186048 9.5937904,4.1086294 c 0.5132566,-0.2348454 1.1201816,0.01638 1.3218626,0.5471604 0.05618,0.1478544 0.05977,0.25322 0.05977,1.7554776 v 1.5981824 l 5.13066,0.00821 5.13066,0.00821 0.177054,0.086945 c 0.212183,0.1041963 0.431247,0.3366427 0.510753,0.5419542 0.05376,0.1388299 0.05755,0.3246532 0.06582,3.232601 0.0057,1.993731 -0.0024,3.145638 -0.02274,3.255837 -0.06334,0.342632 -0.276864,0.621085 -0.585719,0.763825 l -0.14517,0.06709 -5.13066,0.0082 -5.13066,0.0082 v 1.597351 c 0,1.537087 -0.0024,1.603803 -0.06399,1.768377 -0.158014,0.422331 -0.663222,0.700122 -1.1051567,0.607677 z"
       id="path8" /><path
       style="opacity:0;fill:#f40174;stroke-width:0.0310479"
       d="M 9.8062743,19.963955 C 9.7353007,19.949109 9.6165426,19.906727 9.5423674,19.869773 9.4474143,19.822468 8.3397634,18.735341 5.7994895,16.196247 1.7623276,12.160961 2.0267357,12.455049 2.0267357,12 c 0,-0.454813 -0.264023,-0.161033 3.7728019,-4.1980213 C 9.076546,4.5248374 9.4245914,4.186048 9.5937904,4.1086294 c 0.5132566,-0.2348454 1.1201816,0.01638 1.3218626,0.5471604 0.05618,0.1478544 0.05977,0.25322 0.05977,1.7554776 v 1.5981824 l 5.13066,0.00821 5.13066,0.00821 0.177054,0.086945 c 0.212183,0.1041963 0.431247,0.3366427 0.510753,0.5419542 0.05376,0.1388299 0.05755,0.3246532 0.06582,3.232601 0.0057,1.993731 -0.0024,3.145638 -0.02274,3.255837 -0.06334,0.342632 -0.276864,0.621085 -0.585719,0.763825 l -0.14517,0.06709 -5.13066,0.0082 -5.13066,0.0082 v 1.597351 c 0,1.537087 -0.0024,1.603803 -0.06399,1.768377 -0.158014,0.422331 -0.663222,0.700122 -1.1051567,0.607677 z"
       id="path9" /><path
       style="opacity:0;fill:#f40174;stroke-width:0.0310479"
       d="M 9.8062743,19.963955 C 9.7353007,19.949109 9.6165426,19.906727 9.5423674,19.869773 9.4474143,19.822468 8.3397634,18.735341 5.7994895,16.196247 1.7623276,12.160961 2.0267357,12.455049 2.0267357,12 c 0,-0.454813 -0.264023,-0.161033 3.7728019,-4.1980213 C 9.076546,4.5248374 9.4245914,4.186048 9.5937904,4.1086294 c 0.5132566,-0.2348454 1.1201816,0.01638 1.3218626,0.5471604 0.05618,0.1478544 0.05977,0.25322 0.05977,1.7554776 v 1.5981824 l 5.13066,0.00821 5.13066,0.00821 0.177054,0.086945 c 0.212183,0.1041963 0.431247,0.3366427 0.510753,0.5419542 0.05376,0.1388299 0.05755,0.3246532 0.06582,3.232601 0.0057,1.993731 -0.0024,3.145638 -0.02274,3.255837 -0.06334,0.342632 -0.276864,0.621085 -0.585719,0.763825 l -0.14517,0.06709 -5.13066,0.0082 -5.13066,0.0082 v 1.597351 c 0,1.537087 -0.0024,1.603803 -0.06399,1.768377 -0.158014,0.422331 -0.663222,0.700122 -1.1051567,0.607677 z"
       id="path10" /><path
       style="opacity:0;fill:#f40174;stroke-width:0.0310479"
       d="M 9.8062743,19.963955 C 9.7353007,19.949109 9.6165426,19.906727 9.5423674,19.869773 9.4474143,19.822468 8.3397634,18.735341 5.7994895,16.196247 1.7623276,12.160961 2.0267357,12.455049 2.0267357,12 c 0,-0.454813 -0.264023,-0.161033 3.7728019,-4.1980213 C 9.076546,4.5248374 9.4245914,4.186048 9.5937904,4.1086294 c 0.5132566,-0.2348454 1.1201816,0.01638 1.3218626,0.5471604 0.05618,0.1478544 0.05977,0.25322 0.05977,1.7554776 v 1.5981824 l 5.13066,0.00821 5.13066,0.00821 0.177054,0.086945 c 0.212183,0.1041963 0.431247,0.3366427 0.510753,0.5419542 0.05376,0.1388299 0.05755,0.3246532 0.06582,3.232601 0.0057,1.993731 -0.0024,3.145638 -0.02274,3.255837 -0.06334,0.342632 -0.276864,0.621085 -0.585719,0.763825 l -0.14517,0.06709 -5.13066,0.0082 -5.13066,0.0082 v 1.597351 c 0,1.537087 -0.0024,1.603803 -0.06399,1.768377 -0.158014,0.422331 -0.663222,0.700122 -1.1051567,0.607677 z"
       id="path11" /><path
       style="opacity:0;fill:#f40174;stroke-width:0.0310479"
       d="M 9.8062743,19.963955 C 9.7353007,19.949109 9.6165426,19.906727 9.5423674,19.869773 9.4474143,19.822468 8.3397634,18.735341 5.7994895,16.196247 1.7623276,12.160961 2.0267357,12.455049 2.0267357,12 c 0,-0.454813 -0.264023,-0.161033 3.7728019,-4.1980213 C 9.076546,4.5248374 9.4245914,4.186048 9.5937904,4.1086294 c 0.5132566,-0.2348454 1.1201816,0.01638 1.3218626,0.5471604 0.05618,0.1478544 0.05977,0.25322 0.05977,1.7554776 v 1.5981824 l 5.13066,0.00821 5.13066,0.00821 0.177054,0.086945 c 0.212183,0.1041963 0.431247,0.3366427 0.510753,0.5419542 0.05376,0.1388299 0.05755,0.3246532 0.06582,3.232601 0.0057,1.993731 -0.0024,3.145638 -0.02274,3.255837 -0.06334,0.342632 -0.276864,0.621085 -0.585719,0.763825 l -0.14517,0.06709 -5.13066,0.0082 -5.13066,0.0082 v 1.597351 c 0,1.537087 -0.0024,1.603803 -0.06399,1.768377 -0.158014,0.422331 -0.663222,0.700122 -1.1051567,0.607677 z"
       id="path12" /><path
       style="opacity:0;fill:#f40174;stroke-width:0.0439083"
       d="M 9.6817829,19.929662 C 9.5623088,19.89442 8.7138127,19.071418 5.8696115,16.232031 3.8151763,14.181073 2.1739865,12.508305 2.1264279,12.416825 2.0125559,12.197788 2.0134875,11.809401 2.1284525,11.572726 2.2560573,11.310031 9.3802294,4.2032257 9.6103054,4.1091117 c 0.4812806,-0.1968702 1.0158206,0.00455 1.2720006,0.4793069 0.09145,0.1694861 0.09526,0.2328787 0.10863,1.8112179 l 0.01386,1.6355847 h 5.125356 5.125357 l 0.237646,0.142702 c 0.183315,0.1100771 0.265687,0.1965501 0.360301,0.3782345 l 0.122655,0.2355326 -2.45e-4,3.1673617 c -1.64e-4,2.128054 -0.01577,3.223274 -0.04756,3.337757 -0.06292,0.22662 -0.401204,0.561864 -0.637872,0.632147 -0.137829,0.04093 -1.380687,0.05367 -5.236066,0.05367 h -5.055339 v 1.464935 c 0,1.560854 -0.02631,1.840695 -0.197354,2.099162 -0.218913,0.3308 -0.718044,0.501473 -1.1198951,0.382939 z"
       id="path13" /><path
       style="opacity:0;fill:#f40174;stroke-width:0.0439083"
       d="M 9.6817829,19.929662 C 9.5623088,19.89442 8.7138127,19.071418 5.8696115,16.232031 3.8151763,14.181073 2.1739865,12.508305 2.1264279,12.416825 2.0125559,12.197788 2.0134875,11.809401 2.1284525,11.572726 2.2560573,11.310031 9.3802294,4.2032257 9.6103054,4.1091117 c 0.4812806,-0.1968702 1.0158206,0.00455 1.2720006,0.4793069 0.09145,0.1694861 0.09526,0.2328787 0.10863,1.8112179 l 0.01386,1.6355847 h 5.125356 5.125357 l 0.237646,0.142702 c 0.183315,0.1100771 0.265687,0.1965501 0.360301,0.3782345 l 0.122655,0.2355326 -2.45e-4,3.1673617 c -1.64e-4,2.128054 -0.01577,3.223274 -0.04756,3.337757 -0.06292,0.22662 -0.401204,0.561864 -0.637872,0.632147 -0.137829,0.04093 -1.380687,0.05367 -5.236066,0.05367 h -5.055339 v 1.464935 c 0,1.560854 -0.02631,1.840695 -0.197354,2.099162 -0.218913,0.3308 -0.718044,0.501473 -1.1198951,0.382939 z"
       id="path14" /><path
       style="opacity:0;fill:#f40174;stroke-width:0.0439083"
       d="M 9.6817829,19.929662 C 9.5623088,19.89442 8.7138127,19.071418 5.8696115,16.232031 3.8151763,14.181073 2.1739865,12.508305 2.1264279,12.416825 2.0125559,12.197788 2.0134875,11.809401 2.1284525,11.572726 2.2560573,11.310031 9.3802294,4.2032257 9.6103054,4.1091117 c 0.4812806,-0.1968702 1.0158206,0.00455 1.2720006,0.4793069 0.09145,0.1694861 0.09526,0.2328787 0.10863,1.8112179 l 0.01386,1.6355847 h 5.125356 5.125357 l 0.237646,0.142702 c 0.183315,0.1100771 0.265687,0.1965501 0.360301,0.3782345 l 0.122655,0.2355326 -2.45e-4,3.1673617 c -1.64e-4,2.128054 -0.01577,3.223274 -0.04756,3.337757 -0.06292,0.22662 -0.401204,0.561864 -0.637872,0.632147 -0.137829,0.04093 -1.380687,0.05367 -5.236066,0.05367 h -5.055339 v 1.464935 c 0,1.560854 -0.02631,1.840695 -0.197354,2.099162 -0.218913,0.3308 -0.718044,0.501473 -1.1198951,0.382939 z"
       id="path15" /><path
       style="opacity:0;fill:#f40174;stroke-width:0.0439083"
       d="M 9.6817829,19.929662 C 9.5623088,19.89442 8.7138127,19.071418 5.8696115,16.232031 3.8151763,14.181073 2.1739865,12.508305 2.1264279,12.416825 2.0125559,12.197788 2.0134875,11.809401 2.1284525,11.572726 2.2560573,11.310031 9.3802294,4.2032257 9.6103054,4.1091117 c 0.4812806,-0.1968702 1.0158206,0.00455 1.2720006,0.4793069 0.09145,0.1694861 0.09526,0.2328787 0.10863,1.8112179 l 0.01386,1.6355847 h 5.125356 5.125357 l 0.237646,0.142702 c 0.183315,0.1100771 0.265687,0.1965501 0.360301,0.3782345 l 0.122655,0.2355326 -2.45e-4,3.1673617 c -1.64e-4,2.128054 -0.01577,3.223274 -0.04756,3.337757 -0.06292,0.22662 -0.401204,0.561864 -0.637872,0.632147 -0.137829,0.04093 -1.380687,0.05367 -5.236066,0.05367 h -5.055339 v 1.464935 c 0,1.560854 -0.02631,1.840695 -0.197354,2.099162 -0.218913,0.3308 -0.718044,0.501473 -1.1198951,0.382939 z"
       id="path16" /><path
       style="opacity:0;fill:#f40174;stroke-width:0.0439083"
       d="M 9.6817829,19.929662 C 9.5623088,19.89442 8.7138127,19.071418 5.8696115,16.232031 3.8151763,14.181073 2.1739865,12.508305 2.1264279,12.416825 2.0125559,12.197788 2.0134875,11.809401 2.1284525,11.572726 2.2560573,11.310031 9.3802294,4.2032257 9.6103054,4.1091117 c 0.4812806,-0.1968702 1.0158206,0.00455 1.2720006,0.4793069 0.09145,0.1694861 0.09526,0.2328787 0.10863,1.8112179 l 0.01386,1.6355847 h 5.125356 5.125357 l 0.237646,0.142702 c 0.183315,0.1100771 0.265687,0.1965501 0.360301,0.3782345 l 0.122655,0.2355326 -2.45e-4,3.1673617 c -1.64e-4,2.128054 -0.01577,3.223274 -0.04756,3.337757 -0.06292,0.22662 -0.401204,0.561864 -0.637872,0.632147 -0.137829,0.04093 -1.380687,0.05367 -5.236066,0.05367 h -5.055339 v 1.464935 c 0,1.560854 -0.02631,1.840695 -0.197354,2.099162 -0.218913,0.3308 -0.718044,0.501473 -1.1198951,0.382939 z"
       id="path17" /><path
       style="opacity:0;fill:#f40174;stroke-width:0.0439083"
       d="M 9.6817891,19.929663 C 9.562315,19.894421 8.7138189,19.071419 5.8696177,16.232032 3.8151825,14.181074 2.1739927,12.508307 2.1264341,12.416827 2.0125621,12.19779 2.0134937,11.809403 2.1284541,11.572728 2.2560589,11.310033 9.380231,4.2032268 9.610307,4.1091128 c 0.481281,-0.19687 1.015821,0.0045 1.272001,0.479307 0.09145,0.169486 0.09526,0.232879 0.10863,1.811218 l 0.01386,1.635585 h 5.125356 5.125357 l 0.237646,0.142702 c 0.183315,0.110077 0.265687,0.19655 0.360301,0.378234 l 0.122655,0.235533 -2.45e-4,3.1673622 c -1.64e-4,2.128053 -0.01577,3.223273 -0.04756,3.337756 -0.06292,0.22662 -0.401204,0.561864 -0.637872,0.632147 -0.137829,0.04093 -1.380687,0.05367 -5.236066,0.05367 h -5.055339 v 1.464935 c 0,1.560854 -0.02631,1.840695 -0.197354,2.099162 -0.218913,0.3308 -0.718044,0.501473 -1.1198955,0.382939 z"
       id="path18" /><path
       style="opacity:0;fill:#f40174;stroke-width:0.0310479"
       d="m 8.7803314,21.954734 c -0.2914057,-0.09999 -0.4461948,-0.236939 -0.6020433,-0.532659 -0.072321,-0.137229 -0.073355,-0.153013 -0.093503,-1.42725 -0.011206,-0.708667 -0.029261,-2.839327 -0.040124,-4.734799 -0.010863,-1.895472 -0.028153,-3.625781 -0.038421,-3.84513 l -0.01867,-0.398818 -1.6030996,0.01 -1.6030995,0.01 -0.17218,-0.08002 C 4.2784914,10.802378 4.087891,10.560368 4.0161274,10.203031 3.9769374,10.00789 4.0400544,9.708241 4.1575249,9.5317407 4.2428919,9.4034764 11.086935,2.435832 11.31591,2.2440768 c 0.290417,-0.2432089 0.689353,-0.2907256 1.032269,-0.1229523 0.143461,0.070189 0.77417,0.6761945 3.785204,3.6369459 4.058571,3.9907952 3.82535,3.7356537 3.825088,4.184604 -9.3e-5,0.1612406 -0.01865,0.2673056 -0.06507,0.3720076 -0.09076,0.204675 -0.31913,0.438116 -0.512892,0.524274 -0.159765,0.07104 -0.182914,0.07232 -1.775186,0.09789 -0.887321,0.01425 -1.617114,0.02971 -1.621761,0.03436 -0.0046,0.0046 0.01022,2.276979 0.03304,5.049623 0.02408,2.925786 0.03006,5.092029 0.01426,5.162369 -0.0645,0.287081 -0.270202,0.544504 -0.540362,0.676239 -0.139956,0.06825 -0.205212,0.0763 -0.773803,0.09547 -0.341526,0.01152 -1.780595,0.02867 -3.19793,0.0381 -2.4182871,0.01611 -2.5869152,0.01375 -2.7384269,-0.03824 z"
       id="path19" /><path
       style="opacity:0;fill:#f40174;stroke-width:0.0310479"
       d="m 8.7803314,21.954734 c -0.2914057,-0.09999 -0.4461948,-0.236939 -0.6020433,-0.532659 -0.072321,-0.137229 -0.073355,-0.153013 -0.093503,-1.42725 -0.011206,-0.708667 -0.029261,-2.839327 -0.040124,-4.734799 -0.010863,-1.895472 -0.028153,-3.625781 -0.038421,-3.84513 l -0.01867,-0.398818 -1.6030996,0.01 -1.6030995,0.01 -0.17218,-0.08002 C 4.2784914,10.802378 4.087891,10.560368 4.0161274,10.203031 3.9769374,10.00789 4.0400544,9.708241 4.1575249,9.5317407 4.2428919,9.4034764 11.086935,2.435832 11.31591,2.2440768 c 0.290417,-0.2432089 0.689353,-0.2907256 1.032269,-0.1229523 0.143461,0.070189 0.77417,0.6761945 3.785204,3.6369459 4.058571,3.9907952 3.82535,3.7356537 3.825088,4.184604 -9.3e-5,0.1612406 -0.01865,0.2673056 -0.06507,0.3720076 -0.09076,0.204675 -0.31913,0.438116 -0.512892,0.524274 -0.159765,0.07104 -0.182914,0.07232 -1.775186,0.09789 -0.887321,0.01425 -1.617114,0.02971 -1.621761,0.03436 -0.0046,0.0046 0.01022,2.276979 0.03304,5.049623 0.02408,2.925786 0.03006,5.092029 0.01426,5.162369 -0.0645,0.287081 -0.270202,0.544504 -0.540362,0.676239 -0.139956,0.06825 -0.205212,0.0763 -0.773803,0.09547 -0.341526,0.01152 -1.780595,0.02867 -3.19793,0.0381 -2.4182871,0.01611 -2.5869152,0.01375 -2.7384269,-0.03824 z"
       id="path20" /><path
       style="opacity:0;fill:#f40174;stroke-width:0.0310479"
       d="m 8.7803314,21.954734 c -0.2914057,-0.09999 -0.4461948,-0.236939 -0.6020433,-0.532659 -0.072321,-0.137229 -0.073355,-0.153013 -0.093503,-1.42725 -0.011206,-0.708667 -0.029261,-2.839327 -0.040124,-4.734799 -0.010863,-1.895472 -0.028153,-3.625781 -0.038421,-3.84513 l -0.01867,-0.398818 -1.6030996,0.01 -1.6030995,0.01 -0.17218,-0.08002 C 4.2784914,10.802378 4.087891,10.560368 4.0161274,10.203031 3.9769374,10.00789 4.0400544,9.708241 4.1575249,9.5317407 4.2428919,9.4034764 11.086935,2.435832 11.31591,2.2440768 c 0.290417,-0.2432089 0.689353,-0.2907256 1.032269,-0.1229523 0.143461,0.070189 0.77417,0.6761945 3.785204,3.6369459 4.058571,3.9907952 3.82535,3.7356537 3.825088,4.184604 -9.3e-5,0.1612406 -0.01865,0.2673056 -0.06507,0.3720076 -0.09076,0.204675 -0.31913,0.438116 -0.512892,0.524274 -0.159765,0.07104 -0.182914,0.07232 -1.775186,0.09789 -0.887321,0.01425 -1.617114,0.02971 -1.621761,0.03436 -0.0046,0.0046 0.01022,2.276979 0.03304,5.049623 0.02408,2.925786 0.03006,5.092029 0.01426,5.162369 -0.0645,0.287081 -0.270202,0.544504 -0.540362,0.676239 -0.139956,0.06825 -0.205212,0.0763 -0.773803,0.09547 -0.341526,0.01152 -1.780595,0.02867 -3.19793,0.0381 -2.4182871,0.01611 -2.5869152,0.01375 -2.7384269,-0.03824 z"
       id="path21" /><path
       style="opacity:0;fill:#f40174;stroke-width:0.0310479"
       d="m 8.7803314,21.954734 c -0.2914057,-0.09999 -0.4461948,-0.236939 -0.6020433,-0.532659 -0.072321,-0.137229 -0.073355,-0.153013 -0.093503,-1.42725 -0.011206,-0.708667 -0.029261,-2.839327 -0.040124,-4.734799 -0.010863,-1.895472 -0.028153,-3.625781 -0.038421,-3.84513 l -0.01867,-0.398818 -1.6030996,0.01 -1.6030995,0.01 -0.17218,-0.08002 C 4.2784914,10.802378 4.087891,10.560368 4.0161274,10.203031 3.9769374,10.00789 4.0400544,9.708241 4.1575249,9.5317407 4.2428919,9.4034764 11.086935,2.435832 11.31591,2.2440768 c 0.290417,-0.2432089 0.689353,-0.2907256 1.032269,-0.1229523 0.143461,0.070189 0.77417,0.6761945 3.785204,3.6369459 4.058571,3.9907952 3.82535,3.7356537 3.825088,4.184604 -9.3e-5,0.1612406 -0.01865,0.2673056 -0.06507,0.3720076 -0.09076,0.204675 -0.31913,0.438116 -0.512892,0.524274 -0.159765,0.07104 -0.182914,0.07232 -1.775186,0.09789 -0.887321,0.01425 -1.617114,0.02971 -1.621761,0.03436 -0.0046,0.0046 0.01022,2.276979 0.03304,5.049623 0.02408,2.925786 0.03006,5.092029 0.01426,5.162369 -0.0645,0.287081 -0.270202,0.544504 -0.540362,0.676239 -0.139956,0.06825 -0.205212,0.0763 -0.773803,0.09547 -0.341526,0.01152 -1.780595,0.02867 -3.19793,0.0381 -2.4182871,0.01611 -2.5869152,0.01375 -2.7384269,-0.03824 z"
       id="path22" /><path
       style="opacity:0;fill:#f40174;stroke-width:0.0310479"
       d="m 8.7803314,21.954734 c -0.2914057,-0.09999 -0.4461948,-0.236939 -0.6020433,-0.532659 -0.072321,-0.137229 -0.073355,-0.153013 -0.093503,-1.42725 -0.011206,-0.708667 -0.029261,-2.839327 -0.040124,-4.734799 -0.010863,-1.895472 -0.028153,-3.625781 -0.038421,-3.84513 l -0.01867,-0.398818 -1.6030996,0.01 -1.6030995,0.01 -0.17218,-0.08002 C 4.2784914,10.802378 4.087891,10.560368 4.0161274,10.203031 3.9769374,10.00789 4.0400544,9.708241 4.1575249,9.5317407 4.2428919,9.4034764 11.086935,2.435832 11.31591,2.2440768 c 0.290417,-0.2432089 0.689353,-0.2907256 1.032269,-0.1229523 0.143461,0.070189 0.77417,0.6761945 3.785204,3.6369459 4.058571,3.9907952 3.82535,3.7356537 3.825088,4.184604 -9.3e-5,0.1612406 -0.01865,0.2673056 -0.06507,0.3720076 -0.09076,0.204675 -0.31913,0.438116 -0.512892,0.524274 -0.159765,0.07104 -0.182914,0.07232 -1.775186,0.09789 -0.887321,0.01425 -1.617114,0.02971 -1.621761,0.03436 -0.0046,0.0046 0.01022,2.276979 0.03304,5.049623 0.02408,2.925786 0.03006,5.092029 0.01426,5.162369 -0.0645,0.287081 -0.270202,0.544504 -0.540362,0.676239 -0.139956,0.06825 -0.205212,0.0763 -0.773803,0.09547 -0.341526,0.01152 -1.780595,0.02867 -3.19793,0.0381 -2.4182871,0.01611 -2.5869152,0.01375 -2.7384269,-0.03824 z"
       id="path23" /><path
       style="opacity:0;fill:#f40174;stroke-width:0.0310479"
       d="m 8.7803314,21.954734 c -0.2914057,-0.09999 -0.4461948,-0.236939 -0.6020433,-0.532659 -0.072321,-0.137229 -0.073355,-0.153013 -0.093503,-1.42725 -0.011206,-0.708667 -0.029261,-2.839327 -0.040124,-4.734799 -0.010863,-1.895472 -0.028153,-3.625781 -0.038421,-3.84513 l -0.01867,-0.398818 -1.6030996,0.01 -1.6030995,0.01 -0.17218,-0.08002 C 4.2784914,10.802378 4.087891,10.560368 4.0161274,10.203031 3.9769374,10.00789 4.0400544,9.708241 4.1575249,9.5317407 4.2428919,9.4034764 11.086935,2.435832 11.31591,2.2440768 c 0.290417,-0.2432089 0.689353,-0.2907256 1.032269,-0.1229523 0.143461,0.070189 0.77417,0.6761945 3.785204,3.6369459 4.058571,3.9907952 3.82535,3.7356537 3.825088,4.184604 -9.3e-5,0.1612406 -0.01865,0.2673056 -0.06507,0.3720076 -0.09076,0.204675 -0.31913,0.438116 -0.512892,0.524274 -0.159765,0.07104 -0.182914,0.07232 -1.775186,0.09789 -0.887321,0.01425 -1.617114,0.02971 -1.621761,0.03436 -0.0046,0.0046 0.01022,2.276979 0.03304,5.049623 0.02408,2.925786 0.03006,5.092029 0.01426,5.162369 -0.0645,0.287081 -0.270202,0.544504 -0.540362,0.676239 -0.139956,0.06825 -0.205212,0.0763 -0.773803,0.09547 -0.341526,0.01152 -1.780595,0.02867 -3.19793,0.0381 -2.4182871,0.01611 -2.5869152,0.01375 -2.7384269,-0.03824 z"
       id="path24" /><path
       style="opacity:0;fill:#f40174;stroke-width:0.0310479"
       d="m 8.7803314,21.954734 c -0.2914057,-0.09999 -0.4461948,-0.236939 -0.6020433,-0.532659 -0.072321,-0.137229 -0.073355,-0.153013 -0.093503,-1.42725 -0.011206,-0.708667 -0.029261,-2.839327 -0.040124,-4.734799 -0.010863,-1.895472 -0.028153,-3.625781 -0.038421,-3.84513 l -0.01867,-0.398818 -1.6030996,0.01 -1.6030995,0.01 -0.17218,-0.08002 C 4.2784914,10.802378 4.087891,10.560368 4.0161274,10.203031 3.9769374,10.00789 4.0400544,9.708241 4.1575249,9.5317407 4.2428919,9.4034764 11.086935,2.435832 11.31591,2.2440768 c 0.290417,-0.2432089 0.689353,-0.2907256 1.032269,-0.1229523 0.143461,0.070189 0.77417,0.6761945 3.785204,3.6369459 4.058571,3.9907952 3.82535,3.7356537 3.825088,4.184604 -9.3e-5,0.1612406 -0.01865,0.2673056 -0.06507,0.3720076 -0.09076,0.204675 -0.31913,0.438116 -0.512892,0.524274 -0.159765,0.07104 -0.182914,0.07232 -1.775186,0.09789 -0.887321,0.01425 -1.617114,0.02971 -1.621761,0.03436 -0.0046,0.0046 0.01022,2.276979 0.03304,5.049623 0.02408,2.925786 0.03006,5.092029 0.01426,5.162369 -0.0645,0.287081 -0.270202,0.544504 -0.540362,0.676239 -0.139956,0.06825 -0.205212,0.0763 -0.773803,0.09547 -0.341526,0.01152 -1.780595,0.02867 -3.19793,0.0381 -2.4182871,0.01611 -2.5869152,0.01375 -2.7384269,-0.03824 z"
       id="path25" /><path
       style="opacity:0;fill:#f40174;stroke-width:0.0310479"
       d="m 8.7803314,21.954734 c -0.2914057,-0.09999 -0.4461948,-0.236939 -0.6020433,-0.532659 -0.072321,-0.137229 -0.073355,-0.153013 -0.093503,-1.42725 -0.011206,-0.708667 -0.029261,-2.839327 -0.040124,-4.734799 -0.010863,-1.895472 -0.028153,-3.625781 -0.038421,-3.84513 l -0.01867,-0.398818 -1.6030996,0.01 -1.6030995,0.01 -0.17218,-0.08002 C 4.2784914,10.802378 4.087891,10.560368 4.0161274,10.203031 3.9769374,10.00789 4.0400544,9.708241 4.1575249,9.5317407 4.2428919,9.4034764 11.086935,2.435832 11.31591,2.2440768 c 0.290417,-0.2432089 0.689353,-0.2907256 1.032269,-0.1229523 0.143461,0.070189 0.77417,0.6761945 3.785204,3.6369459 4.058571,3.9907952 3.82535,3.7356537 3.825088,4.184604 -9.3e-5,0.1612406 -0.01865,0.2673056 -0.06507,0.3720076 -0.09076,0.204675 -0.31913,0.438116 -0.512892,0.524274 -0.159765,0.07104 -0.182914,0.07232 -1.775186,0.09789 -0.887321,0.01425 -1.617114,0.02971 -1.621761,0.03436 -0.0046,0.0046 0.01022,2.276979 0.03304,5.049623 0.02408,2.925786 0.03006,5.092029 0.01426,5.162369 -0.0645,0.287081 -0.270202,0.544504 -0.540362,0.676239 -0.139956,0.06825 -0.205212,0.0763 -0.773803,0.09547 -0.341526,0.01152 -1.780595,0.02867 -3.19793,0.0381 -2.4182871,0.01611 -2.5869152,0.01375 -2.7384269,-0.03824 z"
       id="path26" /><path
       style="opacity:0;fill:#f40174;stroke-width:0.0310479"
       d="m 8.7803314,21.954734 c -0.2914057,-0.09999 -0.4461948,-0.236939 -0.6020433,-0.532659 -0.072321,-0.137229 -0.073355,-0.153013 -0.093503,-1.42725 -0.011206,-0.708667 -0.029261,-2.839327 -0.040124,-4.734799 -0.010863,-1.895472 -0.028153,-3.625781 -0.038421,-3.84513 l -0.01867,-0.398818 -1.6030996,0.01 -1.6030995,0.01 -0.17218,-0.08002 C 4.2784914,10.802378 4.087891,10.560368 4.0161274,10.203031 3.9769374,10.00789 4.0400544,9.708241 4.1575249,9.5317407 4.2428919,9.4034764 11.086935,2.435832 11.31591,2.2440768 c 0.290417,-0.2432089 0.689353,-0.2907256 1.032269,-0.1229523 0.143461,0.070189 0.77417,0.6761945 3.785204,3.6369459 4.058571,3.9907952 3.82535,3.7356537 3.825088,4.184604 -9.3e-5,0.1612406 -0.01865,0.2673056 -0.06507,0.3720076 -0.09076,0.204675 -0.31913,0.438116 -0.512892,0.524274 -0.159765,0.07104 -0.182914,0.07232 -1.775186,0.09789 -0.887321,0.01425 -1.617114,0.02971 -1.621761,0.03436 -0.0046,0.0046 0.01022,2.276979 0.03304,5.049623 0.02408,2.925786 0.03006,5.092029 0.01426,5.162369 -0.0645,0.287081 -0.270202,0.544504 -0.540362,0.676239 -0.139956,0.06825 -0.205212,0.0763 -0.773803,0.09547 -0.341526,0.01152 -1.780595,0.02867 -3.19793,0.0381 -2.4182871,0.01611 -2.5869152,0.01375 -2.7384269,-0.03824 z"
       id="path27" /><path
       style="opacity:0;fill:#f40174;stroke-width:0.0310479"
       d="m 8.7803314,21.954734 c -0.2914057,-0.09999 -0.4461948,-0.236939 -0.6020433,-0.532659 -0.072321,-0.137229 -0.073355,-0.153013 -0.093503,-1.42725 -0.011206,-0.708667 -0.029261,-2.839327 -0.040124,-4.734799 -0.010863,-1.895472 -0.028153,-3.625781 -0.038421,-3.84513 l -0.01867,-0.398818 -1.6030996,0.01 -1.6030995,0.01 -0.17218,-0.08002 C 4.2784914,10.802378 4.087891,10.560368 4.0161274,10.203031 3.9769374,10.00789 4.0400544,9.708241 4.1575249,9.5317407 4.2428919,9.4034764 11.086935,2.435832 11.31591,2.2440768 c 0.290417,-0.2432089 0.689353,-0.2907256 1.032269,-0.1229523 0.143461,0.070189 0.77417,0.6761945 3.785204,3.6369459 4.058571,3.9907952 3.82535,3.7356537 3.825088,4.184604 -9.3e-5,0.1612406 -0.01865,0.2673056 -0.06507,0.3720076 -0.09076,0.204675 -0.31913,0.438116 -0.512892,0.524274 -0.159765,0.07104 -0.182914,0.07232 -1.775186,0.09789 -0.887321,0.01425 -1.617114,0.02971 -1.621761,0.03436 -0.0046,0.0046 0.01022,2.276979 0.03304,5.049623 0.02408,2.925786 0.03006,5.092029 0.01426,5.162369 -0.0645,0.287081 -0.270202,0.544504 -0.540362,0.676239 -0.139956,0.06825 -0.205212,0.0763 -0.773803,0.09547 -0.341526,0.01152 -1.780595,0.02867 -3.19793,0.0381 -2.4182871,0.01611 -2.5869152,0.01375 -2.7384269,-0.03824 z"
       id="path28" /><path
       style="opacity:0;fill:#f40174;stroke-width:0.0310479"
       d="m 8.7803314,21.954734 c -0.2914057,-0.09999 -0.4461948,-0.236939 -0.6020433,-0.532659 -0.072321,-0.137229 -0.073355,-0.153013 -0.093503,-1.42725 -0.011206,-0.708667 -0.029261,-2.839327 -0.040124,-4.734799 -0.010863,-1.895472 -0.028153,-3.625781 -0.038421,-3.84513 l -0.01867,-0.398818 -1.6030996,0.01 -1.6030995,0.01 -0.17218,-0.08002 C 4.2784914,10.802378 4.087891,10.560368 4.0161274,10.203031 3.9769374,10.00789 4.0400544,9.708241 4.1575249,9.5317407 4.2428919,9.4034764 11.086935,2.435832 11.31591,2.2440768 c 0.290417,-0.2432089 0.689353,-0.2907256 1.032269,-0.1229523 0.143461,0.070189 0.77417,0.6761945 3.785204,3.6369459 4.058571,3.9907952 3.82535,3.7356537 3.825088,4.184604 -9.3e-5,0.1612406 -0.01865,0.2673056 -0.06507,0.3720076 -0.09076,0.204675 -0.31913,0.438116 -0.512892,0.524274 -0.159765,0.07104 -0.182914,0.07232 -1.775186,0.09789 -0.887321,0.01425 -1.617114,0.02971 -1.621761,0.03436 -0.0046,0.0046 0.01022,2.276979 0.03304,5.049623 0.02408,2.925786 0.03006,5.092029 0.01426,5.162369 -0.0645,0.287081 -0.270202,0.544504 -0.540362,0.676239 -0.139956,0.06825 -0.205212,0.0763 -0.773803,0.09547 -0.341526,0.01152 -1.780595,0.02867 -3.19793,0.0381 -2.4182871,0.01611 -2.5869152,0.01375 -2.7384269,-0.03824 z"
       id="path29" /><path
       style="opacity:0;fill:#f40174;stroke-width:0.0310479"
       d="m 8.7803314,21.954734 c -0.2914057,-0.09999 -0.4461948,-0.236939 -0.6020433,-0.532659 -0.072321,-0.137229 -0.073355,-0.153013 -0.093503,-1.42725 -0.011206,-0.708667 -0.029261,-2.839327 -0.040124,-4.734799 -0.010863,-1.895472 -0.028153,-3.625781 -0.038421,-3.84513 l -0.01867,-0.398818 -1.6030996,0.01 -1.6030995,0.01 -0.17218,-0.08002 C 4.2784914,10.802378 4.087891,10.560368 4.0161274,10.203031 3.9769374,10.00789 4.0400544,9.708241 4.1575249,9.5317407 4.2428919,9.4034764 11.086935,2.435832 11.31591,2.2440768 c 0.290417,-0.2432089 0.689353,-0.2907256 1.032269,-0.1229523 0.143461,0.070189 0.77417,0.6761945 3.785204,3.6369459 4.058571,3.9907952 3.82535,3.7356537 3.825088,4.184604 -9.3e-5,0.1612406 -0.01865,0.2673056 -0.06507,0.3720076 -0.09076,0.204675 -0.31913,0.438116 -0.512892,0.524274 -0.159765,0.07104 -0.182914,0.07232 -1.775186,0.09789 -0.887321,0.01425 -1.617114,0.02971 -1.621761,0.03436 -0.0046,0.0046 0.01022,2.276979 0.03304,5.049623 0.02408,2.925786 0.03006,5.092029 0.01426,5.162369 -0.0645,0.287081 -0.270202,0.544504 -0.540362,0.676239 -0.139956,0.06825 -0.205212,0.0763 -0.773803,0.09547 -0.341526,0.01152 -1.780595,0.02867 -3.19793,0.0381 -2.4182871,0.01611 -2.5869152,0.01375 -2.7384269,-0.03824 z"
       id="path30" /><path
       style="opacity:0;fill:#f40174;stroke-width:0.0310479"
       d="m 8.7803314,21.954734 c -0.2914057,-0.09999 -0.4461948,-0.236939 -0.6020433,-0.532659 -0.072321,-0.137229 -0.073355,-0.153013 -0.093503,-1.42725 -0.011206,-0.708667 -0.029261,-2.839327 -0.040124,-4.734799 -0.010863,-1.895472 -0.028153,-3.625781 -0.038421,-3.84513 l -0.01867,-0.398818 -1.6030996,0.01 -1.6030995,0.01 -0.17218,-0.08002 C 4.2784914,10.802378 4.087891,10.560368 4.0161274,10.203031 3.9769374,10.00789 4.0400544,9.708241 4.1575249,9.5317407 4.2428919,9.4034764 11.086935,2.435832 11.31591,2.2440768 c 0.290417,-0.2432089 0.689353,-0.2907256 1.032269,-0.1229523 0.143461,0.070189 0.77417,0.6761945 3.785204,3.6369459 4.058571,3.9907952 3.82535,3.7356537 3.825088,4.184604 -9.3e-5,0.1612406 -0.01865,0.2673056 -0.06507,0.3720076 -0.09076,0.204675 -0.31913,0.438116 -0.512892,0.524274 -0.159765,0.07104 -0.182914,0.07232 -1.775186,0.09789 -0.887321,0.01425 -1.617114,0.02971 -1.621761,0.03436 -0.0046,0.0046 0.01022,2.276979 0.03304,5.049623 0.02408,2.925786 0.03006,5.092029 0.01426,5.162369 -0.0645,0.287081 -0.270202,0.544504 -0.540362,0.676239 -0.139956,0.06825 -0.205212,0.0763 -0.773803,0.09547 -0.341526,0.01152 -1.780595,0.02867 -3.19793,0.0381 -2.4182871,0.01611 -2.5869152,0.01375 -2.7384269,-0.03824 z"
       id="path31" /><path
       style="opacity:0;fill:#f40174;stroke-width:0.0310479"
       d="m 8.7803314,21.954734 c -0.2914057,-0.09999 -0.4461948,-0.236939 -0.6020433,-0.532659 -0.072321,-0.137229 -0.073355,-0.153013 -0.093503,-1.42725 -0.011206,-0.708667 -0.029261,-2.839327 -0.040124,-4.734799 -0.010863,-1.895472 -0.028153,-3.625781 -0.038421,-3.84513 l -0.01867,-0.398818 -1.6030996,0.01 -1.6030995,0.01 -0.17218,-0.08002 C 4.2784914,10.802378 4.087891,10.560368 4.0161274,10.203031 3.9769374,10.00789 4.0400544,9.708241 4.1575249,9.5317407 4.2428919,9.4034764 11.086935,2.435832 11.31591,2.2440768 c 0.290417,-0.2432089 0.689353,-0.2907256 1.032269,-0.1229523 0.143461,0.070189 0.77417,0.6761945 3.785204,3.6369459 4.058571,3.9907952 3.82535,3.7356537 3.825088,4.184604 -9.3e-5,0.1612406 -0.01865,0.2673056 -0.06507,0.3720076 -0.09076,0.204675 -0.31913,0.438116 -0.512892,0.524274 -0.159765,0.07104 -0.182914,0.07232 -1.775186,0.09789 -0.887321,0.01425 -1.617114,0.02971 -1.621761,0.03436 -0.0046,0.0046 0.01022,2.276979 0.03304,5.049623 0.02408,2.925786 0.03006,5.092029 0.01426,5.162369 -0.0645,0.287081 -0.270202,0.544504 -0.540362,0.676239 -0.139956,0.06825 -0.205212,0.0763 -0.773803,0.09547 -0.341526,0.01152 -1.780595,0.02867 -3.19793,0.0381 -2.4182871,0.01611 -2.5869152,0.01375 -2.7384269,-0.03824 z"
       id="path32" /><path
       style="opacity:0;fill:#f40174;stroke-width:0.0310479"
       d="m 8.7803314,21.954734 c -0.2914057,-0.09999 -0.4461948,-0.236939 -0.6020433,-0.532659 -0.072321,-0.137229 -0.073355,-0.153013 -0.093503,-1.42725 -0.011206,-0.708667 -0.029261,-2.839327 -0.040124,-4.734799 -0.010863,-1.895472 -0.028153,-3.625781 -0.038421,-3.84513 l -0.01867,-0.398818 -1.6030996,0.01 -1.6030995,0.01 -0.17218,-0.08002 C 4.2784914,10.802378 4.087891,10.560368 4.0161274,10.203031 3.9769374,10.00789 4.0400544,9.708241 4.1575249,9.5317407 4.2428919,9.4034764 11.086935,2.435832 11.31591,2.2440768 c 0.290417,-0.2432089 0.689353,-0.2907256 1.032269,-0.1229523 0.143461,0.070189 0.77417,0.6761945 3.785204,3.6369459 4.058571,3.9907952 3.82535,3.7356537 3.825088,4.184604 -9.3e-5,0.1612406 -0.01865,0.2673056 -0.06507,0.3720076 -0.09076,0.204675 -0.31913,0.438116 -0.512892,0.524274 -0.159765,0.07104 -0.182914,0.07232 -1.775186,0.09789 -0.887321,0.01425 -1.617114,0.02971 -1.621761,0.03436 -0.0046,0.0046 0.01022,2.276979 0.03304,5.049623 0.02408,2.925786 0.03006,5.092029 0.01426,5.162369 -0.0645,0.287081 -0.270202,0.544504 -0.540362,0.676239 -0.139956,0.06825 -0.205212,0.0763 -0.773803,0.09547 -0.341526,0.01152 -1.780595,0.02867 -3.19793,0.0381 -2.4182871,0.01611 -2.5869152,0.01375 -2.7384269,-0.03824 z"
       id="path33" /><path
       style="opacity:0;fill:#f40174;stroke-width:0.0310479"
       d="m 8.7803314,21.954734 c -0.2914057,-0.09999 -0.4461948,-0.236939 -0.6020433,-0.532659 -0.072321,-0.137229 -0.073355,-0.153013 -0.093503,-1.42725 -0.011206,-0.708667 -0.029261,-2.839327 -0.040124,-4.734799 -0.010863,-1.895472 -0.028153,-3.625781 -0.038421,-3.84513 l -0.01867,-0.398818 -1.6030996,0.01 -1.6030995,0.01 -0.17218,-0.08002 C 4.2784914,10.802378 4.087891,10.560368 4.0161274,10.203031 3.9769374,10.00789 4.0400544,9.708241 4.1575249,9.5317407 4.2428919,9.4034764 11.086935,2.435832 11.31591,2.2440768 c 0.290417,-0.2432089 0.689353,-0.2907256 1.032269,-0.1229523 0.143461,0.070189 0.77417,0.6761945 3.785204,3.6369459 4.058571,3.9907952 3.82535,3.7356537 3.825088,4.184604 -9.3e-5,0.1612406 -0.01865,0.2673056 -0.06507,0.3720076 -0.09076,0.204675 -0.31913,0.438116 -0.512892,0.524274 -0.159765,0.07104 -0.182914,0.07232 -1.775186,0.09789 -0.887321,0.01425 -1.617114,0.02971 -1.621761,0.03436 -0.0046,0.0046 0.01022,2.276979 0.03304,5.049623 0.02408,2.925786 0.03006,5.092029 0.01426,5.162369 -0.0645,0.287081 -0.270202,0.544504 -0.540362,0.676239 -0.139956,0.06825 -0.205212,0.0763 -0.773803,0.09547 -0.341526,0.01152 -1.780595,0.02867 -3.19793,0.0381 -2.4182871,0.01611 -2.5869152,0.01375 -2.7384269,-0.03824 z"
       id="path34" /><path
       style="opacity:0;fill:#f40174;stroke-width:0.0310479"
       d="m 8.7803314,21.954734 c -0.2914057,-0.09999 -0.4461948,-0.236939 -0.6020433,-0.532659 -0.072321,-0.137229 -0.073355,-0.153013 -0.093503,-1.42725 -0.011206,-0.708667 -0.029261,-2.839327 -0.040124,-4.734799 -0.010863,-1.895472 -0.028153,-3.625781 -0.038421,-3.84513 l -0.01867,-0.398818 -1.6030996,0.01 -1.6030995,0.01 -0.17218,-0.08002 C 4.2784914,10.802378 4.087891,10.560368 4.0161274,10.203031 3.9769374,10.00789 4.0400544,9.708241 4.1575249,9.5317407 4.2428919,9.4034764 11.086935,2.435832 11.31591,2.2440768 c 0.290417,-0.2432089 0.689353,-0.2907256 1.032269,-0.1229523 0.143461,0.070189 0.77417,0.6761945 3.785204,3.6369459 4.058571,3.9907952 3.82535,3.7356537 3.825088,4.184604 -9.3e-5,0.1612406 -0.01865,0.2673056 -0.06507,0.3720076 -0.09076,0.204675 -0.31913,0.438116 -0.512892,0.524274 -0.159765,0.07104 -0.182914,0.07232 -1.775186,0.09789 -0.887321,0.01425 -1.617114,0.02971 -1.621761,0.03436 -0.0046,0.0046 0.01022,2.276979 0.03304,5.049623 0.02408,2.925786 0.03006,5.092029 0.01426,5.162369 -0.0645,0.287081 -0.270202,0.544504 -0.540362,0.676239 -0.139956,0.06825 -0.205212,0.0763 -0.773803,0.09547 -0.341526,0.01152 -1.780595,0.02867 -3.19793,0.0381 -2.4182871,0.01611 -2.5869152,0.01375 -2.7384269,-0.03824 z"
       id="path35" /><path
       style="opacity:0;fill:#f40174;stroke-width:0.0310479"
       d="m 8.7803314,21.954734 c -0.2914057,-0.09999 -0.4461948,-0.236939 -0.6020433,-0.532659 -0.072321,-0.137229 -0.073355,-0.153013 -0.093503,-1.42725 -0.011206,-0.708667 -0.029261,-2.839327 -0.040124,-4.734799 -0.010863,-1.895472 -0.028153,-3.625781 -0.038421,-3.84513 l -0.01867,-0.398818 -1.6030996,0.01 -1.6030995,0.01 -0.17218,-0.08002 C 4.2784914,10.802378 4.087891,10.560368 4.0161274,10.203031 3.9769374,10.00789 4.0400544,9.708241 4.1575249,9.5317407 4.2428919,9.4034764 11.086935,2.435832 11.31591,2.2440768 c 0.290417,-0.2432089 0.689353,-0.2907256 1.032269,-0.1229523 0.143461,0.070189 0.77417,0.6761945 3.785204,3.6369459 4.058571,3.9907952 3.82535,3.7356537 3.825088,4.184604 -9.3e-5,0.1612406 -0.01865,0.2673056 -0.06507,0.3720076 -0.09076,0.204675 -0.31913,0.438116 -0.512892,0.524274 -0.159765,0.07104 -0.182914,0.07232 -1.775186,0.09789 -0.887321,0.01425 -1.617114,0.02971 -1.621761,0.03436 -0.0046,0.0046 0.01022,2.276979 0.03304,5.049623 0.02408,2.925786 0.03006,5.092029 0.01426,5.162369 -0.0645,0.287081 -0.270202,0.544504 -0.540362,0.676239 -0.139956,0.06825 -0.205212,0.0763 -0.773803,0.09547 -0.341526,0.01152 -1.780595,0.02867 -3.19793,0.0381 -2.4182871,0.01611 -2.5869152,0.01375 -2.7384269,-0.03824 z"
       id="path36" /><path
       style="opacity:0;fill:#f40174;stroke-width:0.0310479"
       d="m 8.7803314,21.954734 c -0.2914057,-0.09999 -0.4461948,-0.236939 -0.6020433,-0.532659 -0.072321,-0.137229 -0.073355,-0.153013 -0.093503,-1.42725 -0.011206,-0.708667 -0.029261,-2.839327 -0.040124,-4.734799 -0.010863,-1.895472 -0.028153,-3.625781 -0.038421,-3.84513 l -0.01867,-0.398818 -1.6030996,0.01 -1.6030995,0.01 -0.17218,-0.08002 C 4.2784914,10.802378 4.087891,10.560368 4.0161274,10.203031 3.9769374,10.00789 4.0400544,9.708241 4.1575249,9.5317407 4.2428919,9.4034764 11.086935,2.435832 11.31591,2.2440768 c 0.290417,-0.2432089 0.689353,-0.2907256 1.032269,-0.1229523 0.143461,0.070189 0.77417,0.6761945 3.785204,3.6369459 4.058571,3.9907952 3.82535,3.7356537 3.825088,4.184604 -9.3e-5,0.1612406 -0.01865,0.2673056 -0.06507,0.3720076 -0.09076,0.204675 -0.31913,0.438116 -0.512892,0.524274 -0.159765,0.07104 -0.182914,0.07232 -1.775186,0.09789 -0.887321,0.01425 -1.617114,0.02971 -1.621761,0.03436 -0.0046,0.0046 0.01022,2.276979 0.03304,5.049623 0.02408,2.925786 0.03006,5.092029 0.01426,5.162369 -0.0645,0.287081 -0.270202,0.544504 -0.540362,0.676239 -0.139956,0.06825 -0.205212,0.0763 -0.773803,0.09547 -0.341526,0.01152 -1.780595,0.02867 -3.19793,0.0381 -2.4182871,0.01611 -2.5869152,0.01375 -2.7384269,-0.03824 z"
       id="path37" /><path
       style="opacity:0;fill:#f40174;stroke-width:0.0310479"
       d="m 8.7803314,21.954734 c -0.2914057,-0.09999 -0.4461948,-0.236939 -0.6020433,-0.532659 -0.072321,-0.137229 -0.073355,-0.153013 -0.093503,-1.42725 -0.011206,-0.708667 -0.029261,-2.839327 -0.040124,-4.734799 -0.010863,-1.895472 -0.028153,-3.625781 -0.038421,-3.84513 l -0.01867,-0.398818 -1.6030996,0.01 -1.6030995,0.01 -0.17218,-0.08002 C 4.2784914,10.802378 4.087891,10.560368 4.0161274,10.203031 3.9769374,10.00789 4.0400544,9.708241 4.1575249,9.5317407 4.2428919,9.4034764 11.086935,2.435832 11.31591,2.2440768 c 0.290417,-0.2432089 0.689353,-0.2907256 1.032269,-0.1229523 0.143461,0.070189 0.77417,0.6761945 3.785204,3.6369459 4.058571,3.9907952 3.82535,3.7356537 3.825088,4.184604 -9.3e-5,0.1612406 -0.01865,0.2673056 -0.06507,0.3720076 -0.09076,0.204675 -0.31913,0.438116 -0.512892,0.524274 -0.159765,0.07104 -0.182914,0.07232 -1.775186,0.09789 -0.887321,0.01425 -1.617114,0.02971 -1.621761,0.03436 -0.0046,0.0046 0.01022,2.276979 0.03304,5.049623 0.02408,2.925786 0.03006,5.092029 0.01426,5.162369 -0.0645,0.287081 -0.270202,0.544504 -0.540362,0.676239 -0.139956,0.06825 -0.205212,0.0763 -0.773803,0.09547 -0.341526,0.01152 -1.780595,0.02867 -3.19793,0.0381 -2.4182871,0.01611 -2.5869152,0.01375 -2.7384269,-0.03824 z"
       id="path38" /><path
       style="opacity:0;fill:#f40174;stroke-width:0.0310479"
       d="m 8.7803314,21.954734 c -0.2914057,-0.09999 -0.4461948,-0.236939 -0.6020433,-0.532659 -0.072321,-0.137229 -0.073355,-0.153013 -0.093503,-1.42725 -0.011206,-0.708667 -0.029261,-2.839327 -0.040124,-4.734799 -0.010863,-1.895472 -0.028153,-3.625781 -0.038421,-3.84513 l -0.01867,-0.398818 -1.6030996,0.01 -1.6030995,0.01 -0.17218,-0.08002 C 4.2784914,10.802378 4.087891,10.560368 4.0161274,10.203031 3.9769374,10.00789 4.0400544,9.708241 4.1575249,9.5317407 4.2428919,9.4034764 11.086935,2.435832 11.31591,2.2440768 c 0.290417,-0.2432089 0.689353,-0.2907256 1.032269,-0.1229523 0.143461,0.070189 0.77417,0.6761945 3.785204,3.6369459 4.058571,3.9907952 3.82535,3.7356537 3.825088,4.184604 -9.3e-5,0.1612406 -0.01865,0.2673056 -0.06507,0.3720076 -0.09076,0.204675 -0.31913,0.438116 -0.512892,0.524274 -0.159765,0.07104 -0.182914,0.07232 -1.775186,0.09789 -0.887321,0.01425 -1.617114,0.02971 -1.621761,0.03436 -0.0046,0.0046 0.01022,2.276979 0.03304,5.049623 0.02408,2.925786 0.03006,5.092029 0.01426,5.162369 -0.0645,0.287081 -0.270202,0.544504 -0.540362,0.676239 -0.139956,0.06825 -0.205212,0.0763 -0.773803,0.09547 -0.341526,0.01152 -1.780595,0.02867 -3.19793,0.0381 -2.4182871,0.01611 -2.5869152,0.01375 -2.7384269,-0.03824 z"
       id="path39" /><path
       style="opacity:0;fill:#f40174;stroke-width:0.0219542"
       d="M 11.847955,1.9309795 C 11.486389,1.9089692 11.216368,2.1913269 10.982051,2.4263228 9.0690856,4.339188 7.1810633,6.276902 5.2825084,8.2040484 4.8743095,8.6357765 4.4335079,9.0399413 4.0598466,9.5025907 3.7671519,9.9594648 3.9003807,10.620779 4.3449076,10.93124 c 0.1857869,0.131604 0.4060382,0.234356 0.6390702,0.199886 0.9729012,-0.0037 1.9458024,-0.0074 2.9187037,-0.01105 0.027924,3.222102 0.044716,6.444375 0.088288,9.666304 0.00338,0.292211 -0.00377,0.609931 0.1883682,0.85231 0.2236793,0.329411 0.6283082,0.503323 1.0213397,0.473712 1.9880996,-0.02989 3.9769046,-0.01346 5.9647136,-0.05907 0.538729,-0.04122 1.016647,-0.537857 0.98202,-1.087717 0.01101,-2.164987 -0.02411,-4.330009 -0.03556,-6.494978 -0.0094,-1.136781 -0.01676,-2.273583 -0.02936,-3.410334 1.042245,-0.01843 2.086021,-0.0024 3.127181,-0.05407 C 19.765901,10.898464 20.158906,10.30616 20.04989,9.7517618 20.016069,9.5212008 19.89409,9.3147248 19.715148,9.166613 17.466689,6.9072919 15.183033,4.6833006 12.911138,2.4476149 12.661627,2.2005798 12.374074,1.8987036 11.989585,1.9309831 c -0.04721,-3.392e-4 -0.09442,-1.455e-4 -0.14163,-3.6e-6 z"
       id="path40" /><path
       style="opacity:0;fill:#f40174;stroke-width:0.0219542"
       d="M 11.847955,1.9309795 C 11.486389,1.9089692 11.216368,2.1913269 10.982051,2.4263228 9.0690856,4.339188 7.1810633,6.276902 5.2825084,8.2040484 4.8743095,8.6357765 4.4335079,9.0399413 4.0598466,9.5025907 3.7671519,9.9594648 3.9003807,10.620779 4.3449076,10.93124 c 0.1857869,0.131604 0.4060382,0.234356 0.6390702,0.199886 0.9729012,-0.0037 1.9458024,-0.0074 2.9187037,-0.01105 0.027924,3.222102 0.044716,6.444375 0.088288,9.666304 0.00338,0.292211 -0.00377,0.609931 0.1883682,0.85231 0.2236793,0.329411 0.6283082,0.503323 1.0213397,0.473712 1.9880996,-0.02989 3.9769046,-0.01346 5.9647136,-0.05907 0.538729,-0.04122 1.016647,-0.537857 0.98202,-1.087717 0.01101,-2.164987 -0.02411,-4.330009 -0.03556,-6.494978 -0.0094,-1.136781 -0.01676,-2.273583 -0.02936,-3.410334 1.042245,-0.01843 2.086021,-0.0024 3.127181,-0.05407 C 19.765901,10.898464 20.158906,10.30616 20.04989,9.7517618 20.016069,9.5212008 19.89409,9.3147248 19.715148,9.166613 17.466689,6.9072919 15.183033,4.6833006 12.911138,2.4476149 12.661627,2.2005798 12.374074,1.8987036 11.989585,1.9309831 c -0.04721,-3.392e-4 -0.09442,-1.455e-4 -0.14163,-3.6e-6 z"
       id="path41" /><path
       style="opacity:1;fill:#f40174;stroke-width:0.0219542"
       d="M 8.8670367,21.988774 C 8.5211751,21.909848 8.2365748,21.651159 8.132243,21.320878 8.0864764,21.175996 8.0857533,21.134694 8.0451214,16.344869 8.0225866,13.688416 8.0037308,11.403519 8.0032195,11.26732 l -9.296e-4,-0.247635 -1.619119,0.0061 -1.619119,0.0061 -0.126027,-0.05089 C 4.0869905,10.758533 3.8490883,10.147479 4.1078105,9.6192076 4.1831965,9.4652807 4.3170092,9.3255569 7.0093175,6.5895341 11.474117,2.0522395 11.316259,2.2092124 11.511283,2.1128264 c 0.162815,-0.080467 0.170994,-0.082067 0.419662,-0.082067 0.239228,0 0.261935,0.00394 0.40036,0.069523 0.108614,0.051457 0.208427,0.1284742 0.3841,0.2963811 0.130543,0.1247722 1.771144,1.7366022 3.645779,3.5818445 2.104822,2.0718197 3.430414,3.3925025 3.465913,3.4530771 0.340527,0.5810649 0.02573,1.3201949 -0.628187,1.4749759 -0.06144,0.01454 -0.688448,0.02932 -1.658153,0.03907 l -1.55936,0.01569 0.0062,0.562223 c 0.0034,0.309223 0.02178,2.584154 0.0408,5.055402 0.03166,4.114049 0.03162,4.504725 -4.79e-4,4.630018 -0.04936,0.192687 -0.130902,0.330742 -0.27848,0.471508 -0.165226,0.157599 -0.353229,0.245766 -0.580383,0.272181 -0.09591,0.01115 -1.270997,0.02599 -2.611299,0.03297 -1.340301,0.007 -2.6888349,0.01743 -2.996742,0.02323 -0.4311069,0.0081 -0.5906805,0.0035 -0.6939983,-0.02008 z"
       id="path42" /></g></svg>
