<svg width="61" height="61" viewBox="0 0 61 61" fill="none" xmlns="http://www.w3.org/2000/svg">
    <path
        d="M9.5 14C9.71475 14 9.87167 13.8551 9.91293 13.6491C10.4993 9.46852 11.1354 8.83535 15.6118 8.37761C15.8431 8.35473 16 8.19452 16 7.99619C16 7.79784 15.8431 7.64525 15.6118 7.61475C11.1354 7.15701 10.4993 6.52383 9.91293 2.3433C9.87167 2.13733 9.71475 2 9.5 2C9.28525 2 9.12833 2.13733 9.09531 2.3433C8.5089 6.52383 7.86464 7.15701 3.39641 7.61475C3.15692 7.64525 3 7.79784 3 7.99619C3 8.19452 3.15692 8.35473 3.39641 8.37761C7.85635 8.91926 8.47585 9.47617 9.09531 13.6491C9.12833 13.8551 9.28525 14 9.5 14Z M51.489 18C51.908 18 52.1946 17.75 52.2386 17.375C53.0272 11.8492 53.2283 11.8127 59.1968 10.7301L59.3165 10.7084C59.7134 10.6458 60 10.3958 60 10C60 9.62498 59.7134 9.35413 59.3165 9.29164C53.2309 8.5 53.0103 8.31244 52.2386 2.64577C52.1946 2.27084 51.908 2 51.489 2C51.0921 2 50.8055 2.27084 50.7613 2.66667C50.0436 8.17418 49.7334 8.22868 43.9264 9.24896L43.6836 9.29164C43.2867 9.37502 43 9.62498 43 10C43 10.4166 43.2867 10.6458 43.7717 10.7084C49.7691 11.625 50.0338 11.7708 50.7613 17.3333C50.8055 17.75 51.0921 18 51.489 18Z M54.5 56C54.7716 56 54.9074 55.8559 54.9753 55.6296L55.0085 55.4669C55.6765 52.1906 55.6949 52.1002 59.57 51.4321C59.8415 51.391 60 51.2469 60 51C60 50.7531 59.8415 50.609 59.57 50.5679C55.7878 49.8723 55.7645 49.7718 55.0533 46.7061C55.0283 46.5979 55.0023 46.4861 54.9753 46.3704C54.9074 46.1441 54.7716 46 54.5 46C54.2283 46 54.0926 46.1441 54.0247 46.3704C53.9935 46.504 53.9637 46.6325 53.9351 46.7562C53.237 49.7724 53.213 49.8762 49.43 50.5679C49.1811 50.609 49 50.7531 49 51C49 51.2469 49.1811 51.391 49.43 51.4321C53.3133 52.1423 53.3235 52.1921 53.9957 55.4878L54.0247 55.6296C54.0926 55.8559 54.2283 56 54.5 56Z M16.5844 27.7359C15.8338 28.01 14.9998 28.7725 14.6305 29.523C14.1301 30.5834 14.3564 32.1203 15.1785 33.0854C15.6908 33.7049 16.8107 34.1934 17.6924 34.1934C19.0148 34.1934 20.2777 33.3475 20.79 32.1203C21.076 31.4412 21.0283 30.1187 20.6828 29.4516C19.8965 27.8908 18.1689 27.176 16.5844 27.7359Z M44.5705 0.25018C42.5689 0.643344 38.9471 4.69412 36.3498 9.47166C35.909 10.2818 35.3371 11.4375 35.0869 12.0213L34.6342 13.1055L32.9543 13.0935C28.7248 13.0935 23.8996 14.2135 19.7535 16.1674L18.574 16.7154L18.0736 16.2389C15.5478 13.8203 10.9371 10.9609 7.89901 9.9244C6.83866 9.56698 6.43358 9.49549 5.5996 9.48358C3.30018 9.45975 2.69257 10.3771 2.53768 14.0586C2.34706 18.8599 3.84823 24.3523 6.88632 29.9519L7.64882 31.3578L7.45819 32.8113C7.35097 33.5976 7.26757 34.789 7.26757 35.4562C7.26757 36.1115 7.24374 36.6834 7.208 36.7191C7.17225 36.7549 6.85057 36.7072 6.50507 36.6119C6.14764 36.5166 5.17069 36.3498 4.32479 36.2187C2.85936 36.0043 2.78788 36.0043 2.50194 36.2068C2.33514 36.326 2.19218 36.5523 2.16835 36.7191C2.10878 37.2314 2.49003 37.434 3.89589 37.6127C4.61073 37.6961 5.64725 37.8867 6.21913 38.0178C7.37479 38.2918 7.30331 38.1846 7.44628 39.6142C7.48202 40.0074 7.54159 40.4125 7.57733 40.5197C7.62499 40.6865 7.47011 40.7342 6.58846 40.8056C4.80136 40.9486 2.216 41.5205 1.40585 41.9494C0.893543 42.2234 0.869714 42.8668 1.34628 43.1885C1.58456 43.3433 1.72753 43.3195 2.71639 43.0098C4.06268 42.5689 5.58768 42.2949 6.89823 42.2592L7.8871 42.2353L8.23261 43.4267C8.42323 44.082 8.55429 44.6658 8.53046 44.7373C8.50663 44.7969 8.08964 44.9517 7.61307 45.0828C6.60038 45.3449 5.11112 45.893 4.69413 46.167C4.28905 46.4291 4.28905 47.0963 4.70604 47.3703C4.99198 47.5609 5.03964 47.549 5.69491 47.2631C6.3621 46.9771 7.83944 46.4767 8.72108 46.2385L9.17382 46.1312L9.841 47.418C11.9498 51.4687 15.4883 54.5426 19.682 55.9246C20.3492 56.151 21.2428 56.4012 21.6598 56.4846C22.3746 56.6156 22.4103 56.6394 22.9226 57.3662C24.0068 58.8793 25.5199 59.9873 27.2236 60.5234C28.415 60.8928 31.2267 61 32.6564 60.714C34.4793 60.3447 36.1473 59.3439 37.3267 57.9023C37.8748 57.2351 38.5182 56.0676 38.6611 55.4957C38.7088 55.317 38.8041 55.1264 38.8756 55.0668C38.959 55.0072 39.65 54.7689 40.4363 54.5187C44.7254 53.1605 47.9898 51.2543 50.7539 48.4902C53.2678 45.9883 54.8523 43.2242 55.5314 40.2219C55.6148 39.8287 55.7578 39.4951 55.865 39.4594C55.9603 39.4236 56.5799 39.4594 57.2351 39.5428L58.4385 39.6976L58.7006 39.376C59.0342 38.9947 59.0342 38.9232 58.7125 38.5539C58.4742 38.2799 58.2717 38.2203 57.1994 38.0892L55.9723 37.9344L55.9842 36.5166C55.9961 35.7303 56.0557 35.0392 56.1033 34.9916C56.1629 34.932 56.7348 34.801 57.3781 34.7056C58.8674 34.4793 59.1414 34.3601 59.1891 33.8717C59.2605 33.1092 58.8078 32.99 57.0088 33.2998C56.4369 33.407 55.9484 33.4666 55.9365 33.4547C55.8174 33.3117 55.3408 30.4166 55.4123 30.3094C55.4719 30.2379 55.9603 29.9758 56.4965 29.7256C57.6641 29.1894 57.9023 29.0107 57.9023 28.6414C57.9023 28.284 57.3543 27.8551 57.0207 27.9504C56.8777 27.9861 56.3535 28.2125 55.8412 28.4389C55.3408 28.6771 54.9119 28.8439 54.8881 28.8201C54.8642 28.7963 54.6736 28.284 54.4592 27.7002C53.923 26.2109 52.684 23.7209 51.9096 22.5533L51.2662 21.5764L51.1947 18.3238C51.1113 14.0705 50.7658 11.2469 49.9795 8.10155C49.0859 4.55116 47.418 1.10799 46.2861 0.464633C45.8096 0.202523 45.2139 0.119125 44.5705 0.25018ZM45.5951 5.59959C46.3576 6.06424 47.1082 7.86327 47.692 10.6631C48.3115 13.582 48.5736 17.4064 48.1924 17.9545C47.9541 18.2881 47.4775 18.3953 47.0844 18.1928C46.9057 18.0974 45.6904 17.3707 44.3799 16.5605C43.0693 15.7504 41.4371 14.8211 40.7461 14.4994C39.2568 13.7965 38.959 13.5463 38.959 13.0578C38.959 12.1523 41.1273 8.44705 42.6166 6.80291C43.8437 5.44471 44.7492 5.07537 45.5951 5.59959ZM8.47089 13.7369C9.99589 14.4041 13.1293 16.6797 14.2849 17.9426C14.9283 18.6455 15.107 19.1459 14.9045 19.6939C14.7377 20.1109 10.5558 25.5437 10.1508 25.8654C9.70995 26.2109 9.13807 26.1633 8.63768 25.7224C7.6369 24.8408 6.4455 21.1951 6.01659 17.7519C5.70682 15.1785 5.77831 14.2135 6.35018 13.5939C6.57655 13.3556 6.69569 13.3318 7.208 13.3795C7.54159 13.4152 8.10155 13.5701 8.47089 13.7369ZM40.9844 15.25C43.8199 16.215 45.9049 18.4072 46.6555 21.207C46.9295 22.2435 46.9295 24.3285 46.6674 25.3769C45.4045 30.2498 40.3529 32.9305 35.5873 31.2744C34.384 30.8574 33.5262 30.3094 32.5135 29.3086C31.06 27.867 30.2975 26.342 30.0234 24.2928C29.6303 21.4691 30.9885 18.4191 33.4904 16.489C34.3244 15.8457 35.1584 15.4525 36.3498 15.1308C37.5531 14.7972 39.8406 14.8568 40.9844 15.25ZM20.0871 25.6629C22.5771 26.9019 23.8519 29.6064 23.1728 32.2037C22.5533 34.5746 20.6113 36.2426 18.1332 36.5166C15.4883 36.8144 12.7957 34.8963 12.0928 32.2275C11.3422 29.3443 13.0459 26.3181 15.941 25.365C16.4771 25.1863 16.8822 25.1506 17.8949 25.1744C19.0863 25.2101 19.2293 25.2459 20.0871 25.6629ZM48.3592 31.3221C49.074 31.8224 49.1336 32.025 49.1812 34.0742C49.217 35.492 49.1812 36.2783 49.0264 37.1957C48.3592 41.2107 46.2742 44.8207 43.0932 47.4775C42.0685 48.3234 39.9002 49.765 39.3045 49.9795C39.1258 50.051 39.1019 49.4791 39.0185 43.8199C38.9709 40.3887 38.9232 37.5769 38.9113 37.565C38.8994 37.5531 24.1021 41.9613 22.3627 42.4974L21.6717 42.7119L21.6359 43.665C21.6121 44.1892 21.5883 45.8691 21.5764 47.3941L21.5644 50.182L21.0045 49.8484C18.8957 48.6332 16.7512 46.6793 15.5598 44.8803C14.7853 43.7127 14.6424 43.1885 14.9283 42.4974C15.1547 41.9613 15.6908 41.6277 16.4891 41.5205C17.8234 41.3418 21.624 40.5912 23.6971 40.0789C26.1275 39.4951 29.1894 38.6254 29.3443 38.4824C29.4873 38.3514 29.3086 37.5293 29.1299 37.5293C28.7844 37.5293 27.2594 36.6476 26.6994 36.1234C25.234 34.7533 25.3293 33.4428 26.9615 32.6564C29.0822 31.6199 32.6564 31.9773 33.7049 33.3117C34.0266 33.7168 34.0385 34.5269 33.7287 35.1346C33.4547 35.6707 32.3228 36.731 31.6795 37.0646C31.2148 37.291 31.1314 37.4578 31.3101 37.7318C31.5723 38.1488 41.318 34.1338 45.4641 31.8939C46.2623 31.465 47.0129 31.0957 47.132 31.0599C47.4775 30.9765 48.0375 31.0957 48.3592 31.3221Z M37.2649 18.0867C34.6266 18.7793 33 20.8571 33 23.5483C33 25.1116 33.3769 26.1406 34.3687 27.2487C36.4317 29.5838 40.4784 29.5838 42.5414 27.2487C44.0291 25.5667 44.4258 23.1328 43.5134 21.2331C43.0174 20.1843 41.6289 18.7991 40.6371 18.3836C39.8039 18.0472 38.0385 17.8888 37.2649 18.0867Z"
        fill="#997AAE" />
</svg>