<?xml version="1.0" encoding="UTF-8" standalone="no"?>
<svg
   width="61"
   height="61"
   viewBox="0 0 61 61"
   fill="none"
   version="1.1"
   id="svg1"
   sodipodi:docname="random-on.svg"
   inkscape:version="1.4.3 (0d15f75, 2025-12-25)"
   xmlns:inkscape="http://www.inkscape.org/namespaces/inkscape"
   xmlns:sodipodi="http://sodipodi.sourceforge.net/DTD/sodipodi-0.dtd"
   xmlns="http://www.w3.org/2000/svg"
   xmlns:svg="http://www.w3.org/2000/svg">
  <defs
     id="defs1" />
  <sodipodi:namedview
     id="namedview1"
     pagecolor="#ffffff"
     bordercolor="#000000"
     borderopacity="0.25"
     inkscape:showpageshadow="2"
     inkscape:pageopacity="0.0"
     inkscape:pagecheckerboard="0"
     inkscape:deskcolor="#d1d1d1"
     inkscape:zoom="50.688525"
     inkscape:cx="18.32762"
     inkscape:cy="29.878558"
     inkscape:window-width="1920"
     inkscape:window-height="991"
     inkscape:window-x="-9"
     inkscape:window-y="-9"
     inkscape:window-maximized="1"
     inkscape:current-layer="svg1" />
  <path
     d="M16.5844 27.7359C15.8338 28.01 14.9998 28.7725 14.6305 29.523C14.1301 30.5834 14.3564 32.1203 15.1785 33.0854C15.6908 33.7049 16.8107 34.1934 17.6924 34.1934C19.0148 34.1934 20.2777 33.3475 20.79 32.1203C21.076 31.4412 21.0283 30.1187 20.6828 29.4516C19.8965 27.8908 18.1689 27.176 16.5844 27.7359Z"
     fill="#997AAE"
     id="path1" />
  <path
     style="opacity:0;fill:#ffffff;stroke-width:0.0789133"
     d="m 16.947785,34.047817 c -0.933438,-0.251386 -1.713464,-0.817133 -2.096211,-1.520365 -0.449589,-0.826043 -0.563478,-2.084743 -0.255355,-2.822186 0.334766,-0.801206 1.311993,-1.694295 2.154653,-1.969139 0.669454,-0.218352 1.671626,-0.138767 2.329226,0.184969 0.583763,0.287385 1.274481,0.972034 1.545531,1.53195 0.397278,0.820665 0.411777,2.042422 0.0335,2.822504 -0.424868,0.876154 -1.422789,1.631447 -2.400512,1.816869 -0.529462,0.10041 -0.807503,0.09095 -1.310828,-0.0446 z"
     id="path2" />
  <path
     style="opacity:0;fill:#f40174;stroke-width:0.0197283;fill-opacity:1"
     d="m 17.489166,34.176028 c -0.821917,-0.08161 -1.653381,-0.453823 -2.171254,-0.97199 -0.594483,-0.594822 -0.932783,-1.468193 -0.932783,-2.408113 0,-0.834464 0.22999,-1.421392 0.800203,-2.042098 0.786309,-0.855937 1.607762,-1.226834 2.629351,-1.187186 1.057946,0.04106 2.029025,0.598285 2.638236,1.513876 0.348291,0.523452 0.48418,1.000365 0.502834,1.764729 0.01546,0.633368 -0.04831,1.003094 -0.243221,1.41034 -0.508514,1.062462 -1.564627,1.800016 -2.740022,1.91354 -0.192549,0.0186 -0.343802,0.02076 -0.483344,0.0069 z"
     id="path3" />
  <path
     style="opacity:0;fill:#f40174;fill-opacity:1;stroke-width:0.0197283"
     d="m 17.489166,34.176028 c -0.821917,-0.08161 -1.653381,-0.453823 -2.171254,-0.97199 -0.594483,-0.594822 -0.932783,-1.468193 -0.932783,-2.408113 0,-0.834464 0.22999,-1.421392 0.800203,-2.042098 0.786309,-0.855937 1.607762,-1.226834 2.629351,-1.187186 1.057946,0.04106 2.029025,0.598285 2.638236,1.513876 0.348291,0.523452 0.48418,1.000365 0.502834,1.764729 0.01546,0.633368 -0.04831,1.003094 -0.243221,1.41034 -0.508514,1.062462 -1.564627,1.800016 -2.740022,1.91354 -0.192549,0.0186 -0.343802,0.02076 -0.483344,0.0069 z"
     id="path4" />
  <path
     style="opacity:0;fill:#f40174;fill-opacity:1;stroke-width:0.0197283"
     d="m 17.489166,34.176028 c -0.821917,-0.08161 -1.653381,-0.453823 -2.171254,-0.97199 -0.594483,-0.594822 -0.932783,-1.468193 -0.932783,-2.408113 0,-0.834464 0.22999,-1.421392 0.800203,-2.042098 0.786309,-0.855937 1.607762,-1.226834 2.629351,-1.187186 1.057946,0.04106 2.029025,0.598285 2.638236,1.513876 0.348291,0.523452 0.48418,1.000365 0.502834,1.764729 0.01546,0.633368 -0.04831,1.003094 -0.243221,1.41034 -0.508514,1.062462 -1.564627,1.800016 -2.740022,1.91354 -0.192549,0.0186 -0.343802,0.02076 -0.483344,0.0069 z"
     id="path5" />
  <path
     style="opacity:1;fill:#f40174;fill-opacity:1;stroke-width:0.0197283"
     d="m 17.489166,34.176028 c -0.821917,-0.08161 -1.653381,-0.453823 -2.171254,-0.97199 -0.594483,-0.594822 -0.932783,-1.468193 -0.932783,-2.408113 0,-0.834464 0.22999,-1.421392 0.800203,-2.042098 0.786309,-0.855937 1.607762,-1.226834 2.629351,-1.187186 1.057946,0.04106 2.029025,0.598285 2.638236,1.513876 0.348291,0.523452 0.48418,1.000365 0.502834,1.764729 0.01546,0.633368 -0.04831,1.003094 -0.243221,1.41034 -0.508514,1.062462 -1.564627,1.800016 -2.740022,1.91354 -0.192549,0.0186 -0.343802,0.02076 -0.483344,0.0069 z"
     id="path6" />
</svg>
