<svg width="61" height="61" viewBox="0 0 61 61" fill="none" xmlns="http://www.w3.org/2000/svg">
    <path
        d="M30.5004 12.5332C45.0067 12.5333 53.7138 21.074 54.6478 33.4502C55.1863 40.5604 52.922 46.9085 46.9984 50.8877C43.4433 53.2799 38.749 55.0478 30.5619 55.0479C22.5128 55.0478 17.5467 53.7082 13.9916 51.292C8.5924 47.6272 5.90917 41.1984 6.40955 33.9834C7.26746 21.6024 15.9939 12.5332 30.5004 12.5332ZM30.6 34.8506C28.6127 34.884 26.5068 35.5849 26.5306 37.0527C26.5519 38.141 27.9705 39.4236 29.3451 40.0098C29.1602 40.7266 28.776 41.8573 28.098 42.3281C27.0686 43.043 24.6098 43.2241 23.5804 41.6562C23.1277 40.9605 22.47 39.9123 21.4408 40.584C20.216 41.3798 21.6648 43.2243 22.5131 43.8486C23.3614 44.4729 24.8866 45.2405 27.1215 45.0117C29.7486 44.746 30.5115 42.7954 30.5189 42.7764C30.5232 42.7862 31.4652 44.9681 34.722 45.0586C38.034 45.1491 39.0592 43.3581 39.5072 42.8242C39.9552 42.2857 40.4025 40.899 39.64 40.3652C38.8776 39.8269 38.3438 40.4983 37.5385 41.6182C36.733 42.738 35.0798 43.3621 33.4691 42.5996C32.4424 42.1136 32.0331 40.8844 31.8715 40.0566C33.2821 39.4741 34.7785 38.0677 34.7601 36.9336C34.7363 35.4658 32.592 34.8172 30.6 34.8506ZM21.9222 31.3623C21.6172 29.175 20.3823 27.7695 17.9281 28.127C15.8124 28.4368 14.9162 30.5858 15.3832 32.8779C15.8454 35.1654 17.4427 36.4185 19.306 36.042C21.1691 35.6653 22.2939 34.0356 21.9222 31.3623ZM42.4379 27.5361C40.3553 27.4218 38.7924 29.2943 38.7924 31.5723C38.7924 33.8501 40.2932 35.699 42.1469 35.6992C44.0006 35.6992 45.6312 34.2555 45.7933 31.6299C45.9268 29.4854 44.854 27.6743 42.4379 27.5361Z M58.3408 37.4054C58.3408 37.4054 55.9151 37.2338 50.692 38.3442 M57.402 42.4379C57.402 42.4379 55.1002 41.623 50.3584 41.3656 M49.5479 3.32626C50.6535 2.97361 51.9403 3.03138 52.5693 4.06552C54.1515 6.663 55.4905 14.6646 52.3691 25.8683L40.9648 20.3683L38.0771 13.9249C41.9276 8.01105 47.3126 4.03658 49.5479 3.32626ZM50.6875 8.82626C50.3062 8.22579 49.5954 8.06798 48.9473 8.2872C47.7842 8.67356 44.8204 10.8854 42.7285 14.1114C42.4857 14.4879 42.5766 14.9927 42.9482 15.2452C43.7012 15.7552 45.016 16.7418 46.4883 18.2188C47.6463 19.3769 48.59 20.154 49.2715 20.8927C49.7242 21.3835 50.5539 21.1595 50.6875 20.502C51.855 14.8792 51.4832 10.085 50.6875 8.82626Z M3.19298 33.8502C3.35501 34.0456 5.29462 34.017 10.0364 36.2664 M57.6021 32.1727C57.6021 32.1727 55.977 32.33 50.9588 35.1941 M4.19852 43.9819C4.19852 43.9819 5.5043 43.3243 10.2366 42.9097 M1.38203 39.4879C1.38203 39.4879 4.44157 38.4204 9.70282 39.3545 M8.21622 4.64142C8.85009 3.61246 10.2556 3.64532 11.3754 3.99786C14.3444 4.92716 22.0649 11.1516 25.601 20.3016L9.09805 27.4119C4.56594 15.5789 6.61497 7.23868 8.21622 4.64142ZM13.1342 8.96857C11.7045 7.83439 10.5984 7.45391 10.1742 9.27911C9.38802 12.6531 9.44989 17.233 10.2934 19.7586C10.5889 20.6496 11.5041 21.1211 12.2094 20.5067L17.2133 16.3035C17.9471 15.6888 18.3045 15.0882 17.4994 13.8445C16.2508 11.9145 14.0063 9.65958 13.1342 8.96857Z" />
</svg>